<?xml version="1.0" standalone="no"?>
<!DOCTYPE svg PUBLIC "-//W3C//DTD SVG 1.1//EN" "http://www.w3.org/Graphics/SVG/1.1/DTD/svg11.dtd" >
<svg xmlns="http://www.w3.org/2000/svg">
<metadata></metadata>
<defs>
<font id="crete_roundregular" horiz-adv-x="1417" >
<font-face units-per-em="2048" ascent="1638" descent="-410" />
<missing-glyph horiz-adv-x="409" />
<glyph horiz-adv-x="0" />
<glyph horiz-adv-x="0" />
<glyph horiz-adv-x="682" />
<glyph unicode="&#xd;" horiz-adv-x="409" />
<glyph unicode=" "  horiz-adv-x="409" />
<glyph unicode="&#x09;" horiz-adv-x="409" />
<glyph unicode="&#xa0;" horiz-adv-x="409" />
<glyph unicode="!" horiz-adv-x="518" d="M119 92q0 54 38.5 90.5t98.5 36.5q63 0 101 -34.5t38 -90.5q0 -55 -36 -92t-101 -37q-64 0 -101.5 35.5t-37.5 91.5zM147 1044v306q0 23 8 31t31 8h144q23 0 31 -8t8 -31v-310l-45 -682q-2 -23 -10 -31t-31 -8h-50q-23 0 -30.5 7.5t-9.5 31.5z" />
<glyph unicode="&#x22;" horiz-adv-x="765" d="M123 1223v129q0 23 8 31t31 8h131q23 0 31 -8t8 -31v-133q0 -41 -6 -78l-25 -166q-3 -24 -12 -31.5t-33 -7.5h-57q-24 0 -33 7.5t-12 31.5l-25 170q-6 35 -6 78zM434 1223v129q0 23 8 31t31 8h131q23 0 31 -8t8 -31v-133q0 -41 -6 -78l-25 -166q-3 -24 -12 -31.5 t-33 -7.5h-57q-24 0 -33 7.5t-12 31.5l-25 170q-6 35 -6 78z" />
<glyph unicode="#" horiz-adv-x="1153" d="M82 385v4q0 22 6.5 28.5t28.5 6.5h211l47 252h-211q-22 0 -28.5 6.5t-6.5 28.5v4q0 22 6.5 28.5t28.5 6.5h225l57 303q3 21 11 27.5t32 6.5h5q20 0 25.5 -7t2.5 -27l-57 -303h270l53 303q3 21 11 27.5t32 6.5h5q20 0 25.5 -7t2.5 -27l-53 -303h225q22 0 28.5 -6.5 t6.5 -28.5v-4q0 -22 -6.5 -28.5t-28.5 -6.5h-239l-43 -252h235q22 0 28.5 -6.5t6.5 -28.5v-4q0 -22 -6.5 -28.5t-28.5 -6.5h-250l-61 -350q-3 -22 -11 -28.5t-30 -6.5h-4q-22 0 -28 7.5t-3 27.5l62 350h-273l-65 -350q-3 -22 -11 -28.5t-30 -6.5h-4q-22 0 -28 7.5t-3 27.5 l65 350h-198q-22 0 -28.5 6.5t-6.5 28.5zM403 424h275l43 252h-270z" />
<glyph unicode="$" horiz-adv-x="882" d="M63 51v217q0 23 8 31t31 8h99q23 0 30.5 -8t6.5 -31l-7 -110q31 -25 103 -35l41 311q-40 14 -61.5 22.5t-58.5 26t-58 32.5t-47 39.5t-40 51t-24 63t-10 79.5q0 145 105.5 239t283.5 100l12 95q5 24 13.5 31.5t31.5 7.5h8q23 0 29.5 -8t3.5 -31l-12 -97q77 -5 180 -30 q23 -6 30 -15t7 -32v-217q0 -23 -8 -31t-31 -8h-98q-23 0 -30.5 8t-4.5 31l10 108q-49 21 -78 27l-36 -285q127 -49 178 -82q145 -93 145 -262q0 -150 -111 -240.5t-305 -91.5l-16 -127q-5 -24 -13.5 -31.5t-31.5 -7.5h-8q-23 0 -30 7.5t-5 31.5l18 131q-104 5 -213 35 q-23 6 -30 15t-7 32zM289 807q0 -50 28.5 -80.5t92.5 -60.5l32 264q-153 -10 -153 -123zM420 117q174 3 174 133q0 55 -32.5 88t-104.5 65z" />
<glyph unicode="%" horiz-adv-x="1703" d="M82 967q0 93 29 167.5t77.5 119.5t107.5 68.5t124 23.5q144 0 234.5 -95t90.5 -280q0 -181 -93 -284t-236 -103q-148 0 -241 103t-93 280zM262 958q0 -121 37 -178t117 -57q77 0 114 58.5t37 185.5q0 129 -35 186t-114 57q-80 0 -118 -60t-38 -192zM450.5 -27.5 q-4.5 7.5 4.5 27.5l628 1307q10 22 20.5 28t35.5 6h82q22 0 26.5 -7t-4.5 -27l-631 -1307q-11 -22 -21 -28.5t-34 -6.5h-80q-22 0 -26.5 7.5zM958 348q0 93 29 167.5t77.5 119.5t107.5 68.5t124 23.5q145 0 235.5 -95t90.5 -280q0 -180 -93.5 -283.5t-236.5 -103.5 q-148 0 -241 103t-93 280zM1139 340q0 -121 37 -178.5t116 -57.5q77 0 114.5 58.5t37.5 185.5q0 129 -35.5 186.5t-114.5 57.5q-80 0 -117.5 -60t-37.5 -192z" />
<glyph unicode="&#x26;" horiz-adv-x="1325" d="M164 360q0 150 82 250t198 127q-247 90 -247 316q0 77 27 143.5t79 118t134.5 81t187.5 29.5q363 0 366 -335q1 -23 -6.5 -31t-30.5 -8h-108q-25 0 -33 8t-10 31q-6 82 -47 122.5t-135 40.5q-103 0 -155 -60.5t-52 -152.5q0 -42 12 -77.5t39 -68t80 -51t127 -18.5h532 q23 0 31 -8t8 -31v-94q0 -23 -8 -30.5t-31 -6.5h-92v-534q0 -23 -6.5 -33.5t-26.5 -21.5q-88 -45 -213 -74t-239 -29q-226 0 -344.5 99.5t-118.5 297.5zM379 377q0 -118 70 -181t202 -63q140 0 236 57v465h-193q-155 0 -235 -77.5t-80 -200.5z" />
<glyph unicode="'" horiz-adv-x="454" d="M123 1223v129q0 23 8 31t31 8h131q23 0 31 -8t8 -31v-133q0 -41 -6 -78l-25 -166q-3 -24 -12 -31.5t-33 -7.5h-57q-24 0 -33 7.5t-12 31.5l-25 170q-6 35 -6 78z" />
<glyph unicode="(" horiz-adv-x="688" d="M170 590q-6 39 0 78l127 821q3 24 12 31.5t33 7.5h215q23 0 31 -8t8 -31v-100q0 -23 -8 -30.5t-31 -6.5l-88 6l-109 -729l125 -772l93 6q23 1 30.5 -6t7.5 -31v-94q0 -23 -7.5 -31t-30.5 -8h-216q-24 0 -33 7.5t-12 31.5z" />
<glyph unicode=")" horiz-adv-x="688" d="M72 -174q0 23 8 30.5t31 6.5l92 -6l125 772l-109 729l-88 -6q-23 -1 -31 6.5t-8 30.5v100q0 23 8 31t31 8h215q24 0 33 -7.5t12 -31.5l127 -821q6 -39 0 -78l-147 -858q-3 -24 -12 -31.5t-33 -7.5h-215q-23 0 -31 8t-8 31v94z" />
<glyph unicode="*" horiz-adv-x="995" d="M138.5 967q2.5 11 21.5 24l200 139l-200 146q-19 13 -20.5 24t10.5 31l2 4q12 20 22.5 23t32.5 -6l213 -103l29 240q3 23 11.5 31t31.5 8h10q23 0 31.5 -8t11.5 -31l22 -240l224 101q22 10 32 6.5t21 -23.5l2 -4q11 -20 8.5 -31t-20.5 -24l-203 -139l205 -148 q19 -13 20.5 -24t-10.5 -31l-4 -2q-12 -20 -23 -23.5t-33 6.5l-215 101l-28 -236q-3 -23 -11.5 -31t-31.5 -8h-8q-23 0 -31.5 8t-11.5 31l-25 236l-221 -101q-22 -10 -32 -6.5t-21 25.5l-3 2q-11 22 -8.5 33z" />
<glyph unicode="+" horiz-adv-x="1085" d="M72 582v55q0 23 8 31t31 8h354v354q0 23 8 31t31 8h71q23 0 31 -8t8 -31v-354h361q23 0 31 -8t8 -31v-55q0 -23 -8 -31t-31 -8h-361v-385q0 -23 -8 -31t-31 -8h-71q-23 0 -31 8t-8 31v385h-354q-23 0 -31 8t-8 31z" />
<glyph unicode="," horiz-adv-x="598" d="M137 121q0 58 40 96.5t108 38.5q73 0 114 -37.5t41 -105.5q0 -52 -22 -101t-72 -131l-113 -178q-12 -20 -22.5 -23t-32.5 7l-12 4q-22 11 -26 20.5t3 32.5l74 217q-3 3 -14 16t-16 19t-14.5 19t-14 23t-10.5 24t-8.5 28.5t-2.5 30.5z" />
<glyph unicode="-" horiz-adv-x="577" d="M61 485v121q0 23 8 31t31 8h377q23 0 31 -8t8 -31v-121q0 -23 -8 -31t-31 -8h-377q-23 0 -31 8t-8 31z" />
<glyph unicode="." horiz-adv-x="571" d="M104 102q0 60 43 101t109 41q70 0 113 -39t43 -101q0 -61 -41 -102t-113 -41t-113 39.5t-41 101.5z" />
<glyph unicode="/" horiz-adv-x="919" d="M71.5 -199.5q-5.5 7.5 2.5 29.5l602 1659q8 23 17 30t34 7h82q23 0 28.5 -7.5t-1.5 -29.5l-605 -1659q-8 -23 -17 -30t-34 -7h-80q-23 0 -28.5 7.5z" />
<glyph unicode="0" horiz-adv-x="1179" d="M72 516q0 122 31 221t82.5 163t121 107t142.5 61.5t151 18.5q82 0 154.5 -18t138 -59t113 -103.5t75 -157t27.5 -212.5q0 -149 -42 -260t-116.5 -175.5t-167 -95.5t-204.5 -31q-232 0 -369 138.5t-137 402.5zM311 518q0 -174 67 -274.5t208 -100.5q144 0 215 91.5 t71 287.5t-68.5 294.5t-211.5 98.5q-281 0 -281 -397z" />
<glyph unicode="1" horiz-adv-x="694" d="M51 913v95q0 23 8 31t31 8h344q23 0 31 -8t8 -31v-846h141q23 1 31 -6.5t8 -30.5v-86q0 -23 -8 -31t-31 -8h-512q-23 0 -31 8t-8 31v86q0 23 8 30.5t31 6.5h142v723l-154 -8q-23 -2 -31 5.5t-8 30.5z" />
<glyph unicode="2" horiz-adv-x="1077" d="M82 739q9 165 121.5 256.5t296.5 91.5q190 0 294.5 -87t104.5 -261q0 -60 -17 -117t-43 -103t-67.5 -91t-81.5 -78.5t-94.5 -69.5t-96 -59.5t-96.5 -52.5h422l-8 102q-1 23 6.5 31t30.5 8h96q23 0 31 -8t8 -31v-340q0 -23 -8 -31t-31 -8h-96q-23 0 -30.5 8t-6.5 31l6 70 h-696q-23 0 -31 8t-8 31v84q0 23 6.5 32.5t28.5 20.5q62 32 108 57.5t106 62.5t103 69.5t88 76t72.5 85.5t45.5 93t18 103q0 90 -41 141t-150 51q-181 0 -205 -176q-3 -23 -11.5 -31t-31.5 -8h-106q-23 0 -30.5 8t-6.5 31z" />
<glyph unicode="3" horiz-adv-x="989" d="M41 55q-1 23 6.5 31t30.5 8h115q24 0 32 -7.5t11 -31.5q7 -95 59 -134.5t158 -39.5q110 0 168.5 54t58.5 182q0 119 -57.5 171.5t-161.5 57.5q-23 1 -62.5 1t-60.5 1q-23 0 -31 8t-8 31v90q0 23 7.5 30t31.5 9q104 5 133 10q99 19 141.5 72.5t42.5 138.5q0 178 -184 178 q-190 0 -209 -176q-3 -23 -11.5 -31t-31.5 -8h-108q-23 0 -30.5 8t-6.5 31q5 116 63.5 196t148 116t201.5 36q192 0 291 -84t99 -239q0 -65 -23.5 -119.5t-64 -92.5t-83.5 -63.5t-94 -44.5q56 -7 106 -29.5t93 -61t68.5 -100t25.5 -138.5q0 -185 -125.5 -294.5 t-333.5 -109.5q-197 0 -298 83t-107 261z" />
<glyph unicode="4" horiz-adv-x="1073" d="M61 70v90q0 38 21 71l485 783q12 20 23.5 26.5t36.5 6.5h161q23 0 31 -8t8 -31v-805h168q23 0 31 -8t8 -31v-94q0 -23 -8 -31t-31 -8h-170v-264q0 -23 -8 -31t-31 -8h-147q-23 0 -31 8t-8 31v264h-500q-23 0 -31 8t-8 31zM229 203h373v604z" />
<glyph unicode="5" horiz-adv-x="972" d="M23 59q0 24 6.5 31.5t29.5 7.5h121q23 0 31.5 -8t11.5 -31q16 -178 203 -178q59 0 103 17t69.5 43t40.5 65t20 75.5t5 80.5q0 130 -55 196t-160 66q-104 0 -197 -70q-20 -14 -33.5 -15.5t-36.5 7.5l-22 10q-22 9 -28 19.5t-3 34.5l68 598q3 23 11.5 31t31.5 8h585 q23 0 31 -8t8 -31v-119q0 -23 -8 -31t-31 -8h-465l-43 -305q96 55 207 55q162 0 265.5 -106.5t103.5 -303.5q0 -228 -122.5 -353.5t-340.5 -125.5q-202 0 -300 88t-107 260z" />
<glyph unicode="6" horiz-adv-x="1118" d="M86 604q0 373 144.5 556t408.5 183q150 0 242.5 -74.5t105.5 -230.5q2 -24 -5 -31.5t-30 -7.5h-112q-24 0 -33 7.5t-12 31.5q-10 65 -49 99t-121 34q-66 0 -119 -23.5t-95.5 -75t-67.5 -141t-28 -212.5q48 68 131 109.5t187 41.5q193 0 296 -111.5t103 -295.5 q0 -218 -124.5 -353t-336.5 -135q-247 0 -366 158t-119 471zM319 453q0 -61 12 -112.5t38.5 -98t76.5 -73t119 -26.5q242 0 242 283q0 266 -242 266q-89 0 -154.5 -41t-84.5 -127q-7 -40 -7 -71z" />
<glyph unicode="7" horiz-adv-x="944" d="M20 889v119q0 23 8 31t31 8h826q23 0 31 -8t8 -31v-90q0 -39 -17 -74l-518 -1082q-11 -22 -20.5 -28t-34.5 -6h-154q-22 0 -26.5 7t4.5 27l524 1088h-623q-23 0 -31 8t-8 31z" />
<glyph unicode="8" horiz-adv-x="1093" d="M78 313q0 72 23 133t65 106t83 75t95 59q-49 29 -83 56t-63.5 63.5t-44 83.5t-14.5 106q0 112 60 192.5t152.5 118t203.5 37.5q180 0 278.5 -82.5t98.5 -207.5q0 -48 -13.5 -91t-32.5 -74t-51.5 -63t-59.5 -52.5t-68 -47.5q165 -71 231 -150.5t66 -212.5 q0 -173 -127.5 -280t-354.5 -107q-221 0 -332.5 92.5t-111.5 245.5zM295 328q0 -191 235 -191q115 0 180.5 48t65.5 149q0 52 -22.5 94.5t-71 76.5t-77.5 49.5t-88 41.5q-9 4 -13 6q-42 -24 -74.5 -48t-65.5 -58t-51 -77t-18 -91zM362 1024q0 -79 47 -129.5t134 -95.5 q42 29 66.5 48.5t53.5 50t42.5 64.5t13.5 74q0 148 -164 148q-87 0 -140 -40.5t-53 -119.5z" />
<glyph unicode="9" horiz-adv-x="1118" d="M86 616q0 207 123.5 339t337.5 132q246 0 365.5 -151t119.5 -469q0 -758 -543 -758q-167 0 -258 77.5t-102 227.5q-1 23 6.5 31t30.5 8h113q24 0 32 -7.5t13 -31.5q13 -68 50 -100.5t124 -32.5q63 0 114.5 22.5t94.5 72.5t68 141t28 217q-48 -68 -131 -110t-187 -42 q-194 0 -296.5 118.5t-102.5 315.5zM311 633q0 -273 242 -273q94 0 161.5 51t80.5 142q4 23 4 72q0 43 -7 82t-24.5 79t-44.5 69t-70.5 47t-99.5 18q-242 0 -242 -287z" />
<glyph unicode=":" horiz-adv-x="571" d="M104 102q0 60 43 101t109 41q70 0 113 -39t43 -101q0 -61 -41 -102t-113 -41t-113 39.5t-41 101.5zM104 915q0 60 43 101t109 41q70 0 113 -39t43 -101q0 -61 -41 -102t-113 -41t-113 39.5t-41 101.5z" />
<glyph unicode=";" horiz-adv-x="614" d="M137 121q0 58 40 96.5t108 38.5q73 0 114 -37.5t41 -105.5q0 -52 -22 -101t-72 -131l-113 -178q-12 -20 -22.5 -23t-32.5 7l-12 4q-22 11 -26 20.5t3 32.5l74 217q-3 3 -14 16t-16 19t-14.5 19t-14 23t-10.5 24t-8.5 28.5t-2.5 30.5zM147 915q0 60 43 101t109 41 q70 0 113 -38.5t43 -100.5q0 -61 -41 -102.5t-113 -41.5t-113 39.5t-41 101.5z" />
<glyph unicode="&#x3c;" horiz-adv-x="1085" d="M109 514v61q0 25 6 35t28 19l799 348q20 7 27.5 2t7.5 -27v-82q0 -25 -6.5 -34.5t-28.5 -18.5l-657 -268l657 -285q22 -11 28.5 -21t6.5 -34v-86q0 -22 -7.5 -27t-27.5 4l-799 359q-22 11 -28 20.5t-6 34.5z" />
<glyph unicode="=" horiz-adv-x="1085" d="M72 328v55q0 23 8 31t31 8h864q23 0 31 -8t8 -31v-55q0 -23 -8 -31t-31 -8h-864q-23 0 -31 8t-8 31zM72 694v56q0 23 8 30.5t31 7.5h864q23 0 31 -7.5t8 -30.5v-56q0 -23 -8 -31t-31 -8h-864q-23 0 -31 8t-8 31z" />
<glyph unicode="&#x3e;" horiz-adv-x="1085" d="M109 115v102q0 32 28 43l664 289l-664 270q-28 11 -28 43v99q0 29 28 18l811 -352q29 -12 29 -43v-78q0 -31 -29 -43l-811 -367q-28 -11 -28 19z" />
<glyph unicode="?" horiz-adv-x="952" d="M74 1092q9 163 119 248t292 85q181 0 288.5 -90.5t107.5 -265.5q0 -94 -29 -170t-82 -129t-119 -88t-149 -57v-263q0 -23 -8 -30.5t-31 -7.5h-98q-23 0 -31 7.5t-8 30.5v349q0 24 6.5 32.5t29.5 14.5q134 30 214.5 102.5t80.5 192.5q0 47 -8.5 83t-29 67t-60.5 48t-98 17 q-89 0 -139.5 -45.5t-59.5 -130.5q-3 -23 -11.5 -31t-31.5 -8h-108q-23 0 -30.5 8t-6.5 31zM272 92q0 53 39 90t99 37q63 0 101 -34.5t38 -90.5q0 -55 -36 -92t-101 -37q-64 0 -102 36t-38 91z" />
<glyph unicode="@" horiz-adv-x="1736" d="M96 469q0 180 58 330.5t163 256.5t257 165t335 59q349 0 546.5 -188t197.5 -541q0 -66 -7 -126t-23 -124.5t-46.5 -117t-73 -94.5t-106.5 -65.5t-144 -23.5q-79 0 -129 33t-53 96q-107 -129 -283 -129q-43 0 -82.5 8.5t-76.5 28.5t-64.5 50t-44 77t-16.5 106 q0 66 20.5 119t52 88t80 61t94.5 40t106 22.5t104 10.5t98 3v50q0 97 -37.5 142.5t-130.5 45.5q-90 0 -126 -26.5t-44 -82.5q-3 -23 -11.5 -30.5t-33.5 -7.5h-92q-24 0 -31 7.5t-4 30.5q7 72 42 125t89.5 81.5t115 41.5t130.5 13q99 0 168 -25t105.5 -70.5t51.5 -98.5 t15 -120v-491q0 -51 14.5 -76t52.5 -25q111 0 171.5 124t60.5 317q0 314 -174 488.5t-496 174.5q-212 0 -372 -95t-244 -260t-84 -374q0 -142 35.5 -256t99 -192t152.5 -130t193.5 -76t225.5 -24q63 0 127 6q23 3 30.5 -3.5t10.5 -28.5v-5q3 -22 -3 -29t-28 -9 q-86 -7 -145 -7q-174 0 -317 45t-251.5 134.5t-168.5 235t-60 335.5zM711 299q0 -64 38 -101.5t117 -37.5q93 0 145 42t52 99v182q-45 -1 -67.5 -2t-66.5 -5.5t-68.5 -11t-57 -20.5t-50 -32.5t-30 -47t-12.5 -65.5z" />
<glyph unicode="A" horiz-adv-x="1425" d="M0 31v100q0 31 31 31h121l409 1200q12 29 41 29h199q29 0 41 -29l413 -1200h140q30 0 30 -31v-100q0 -31 -30 -31h-514q-31 0 -31 31v100q0 31 31 31h127l-97 276h-473l-94 -276h123q31 0 31 -31v-100q0 -31 -31 -31h-436q-31 0 -31 31zM479 592h387l-192 602z" />
<glyph unicode="B" horiz-adv-x="1202" d="M80 31v100q0 31 31 31h108v1063h-106q-31 0 -31 30v105q0 33 31 33q245 10 436 10q252 0 384 -85t132 -243q0 -115 -70.5 -200t-167.5 -123q157 -26 240.5 -117.5t83.5 -224.5q0 -175 -128.5 -282.5t-342.5 -121.5q-88 -6 -283 -6h-286q-31 0 -31 31zM449 158h92 q86 0 151.5 12t118.5 39.5t81 79t28 125.5q0 231 -324 231h-147v-487zM449 815h77q303 0 303 211q0 118 -73.5 164.5t-210.5 46.5h-96v-422z" />
<glyph unicode="C" horiz-adv-x="1288" d="M88 688q0 159 39 287.5t102.5 210.5t148.5 137.5t172 78.5t179 23q240 0 428 -104q27 -15 27 -41v-264q0 -31 -31 -31h-115q-31 0 -28 31l6 143q-128 86 -289 86q-109 0 -187 -40.5t-122 -114t-64 -164.5t-20 -205q0 -95 13.5 -177t45.5 -155t80.5 -124t122 -81 t166.5 -30q176 0 256 65l-8 143q-3 31 28 31h117q31 0 31 -31v-260q0 -17 -3.5 -24.5t-17.5 -14.5q-180 -88 -411 -88q-171 0 -299.5 51.5t-208 146.5t-119 224t-39.5 291z" />
<glyph unicode="D" horiz-adv-x="1390" d="M82 31v100q0 31 31 31h106v1063h-106q-31 0 -31 30v105q0 17 7 24t24 7q262 12 442 12q74 0 136.5 -5t142 -21.5t142.5 -44.5t126 -79.5t105.5 -120t69 -170.5t26.5 -229q0 -189 -55.5 -331t-158 -229t-240.5 -130t-310 -43h-426q-31 0 -31 31zM449 160h135 q226 0 349.5 147t123.5 389q0 271 -116 404t-361 133h-131v-1073z" />
<glyph unicode="E" horiz-adv-x="1136" d="M82 31v100q0 31 31 31h108v1063h-108q-31 0 -31 30v105q0 31 31 31h901q30 0 30 -31v-275q0 -30 -30 -30h-115q-32 0 -29 30l9 142h-428v-436h305l-8 104q-3 31 28 31h115q31 0 31 -31v-363q0 -30 -31 -30h-115q-31 0 -28 30l6 99h-303v-471h469l-9 145q-3 31 29 31h115 q30 0 30 -31v-274q0 -17 -6.5 -24t-23.5 -7h-942q-31 0 -31 31z" />
<glyph unicode="F" horiz-adv-x="1105" d="M82 31v100q0 31 31 31h108v1063h-108q-31 0 -31 30v105q0 31 31 31h921q31 0 31 -31v-275q0 -30 -31 -30h-114q-32 0 -29 30l8 142h-448v-426h325l-8 104q-3 31 29 31h114q31 0 31 -31v-362q0 -31 -31 -31h-114q-32 0 -29 31l6 98h-323v-479h211q30 0 30 -31v-100 q0 -31 -30 -31h-549q-31 0 -31 31z" />
<glyph unicode="G" horiz-adv-x="1423" d="M88 698q0 156 39 282t102.5 207.5t148.5 136.5t172.5 78t178.5 23q252 0 426 -108q29 -16 29 -45v-256q0 -31 -31 -31h-117q-31 0 -28 31l6 137q-127 92 -287 92q-87 0 -155.5 -28t-112.5 -75t-72.5 -114t-40.5 -139.5t-12 -157.5q0 -95 13.5 -177t45 -156t79.5 -126.5 t122 -83t168 -30.5q88 0 150.5 16.5t119.5 54.5v250h-131q-31 0 -31 31v102q0 17 7 24t24 7h451q30 0 30 -31v-102q0 -31 -30 -31h-109v-348q0 -29 -29 -43q-89 -47 -218.5 -80t-241.5 -33q-142 0 -255 37t-189 101.5t-126.5 156.5t-73 198t-22.5 230z" />
<glyph unicode="H" horiz-adv-x="1521" d="M82 31v100q0 31 31 31h108v1063h-108q-31 0 -31 30v105q0 31 31 31h446q31 0 31 -31v-105q0 -30 -31 -30h-108v-422h620v422h-108q-31 0 -31 30v105q0 31 31 31h446q31 0 31 -31v-105q0 -30 -31 -30h-109v-1063h109q31 0 31 -31v-100q0 -31 -31 -31h-446q-31 0 -31 31 v100q0 31 31 31h108v465h-620v-465h108q31 0 31 -31v-100q0 -31 -31 -31h-446q-31 0 -31 31z" />
<glyph unicode="I" horiz-adv-x="671" d="M82 31v100q0 31 31 31h108v1063h-108q-31 0 -31 30v105q0 31 31 31h446q31 0 31 -31v-105q0 -30 -31 -30h-108v-1063h108q31 0 31 -31v-100q0 -31 -31 -31h-446q-31 0 -31 31z" />
<glyph unicode="J" horiz-adv-x="673" d="M-164 -410l37 107q9 31 37 20q70 -26 143 -26q87 0 128.5 52.5t41.5 178.5v1303h-108q-31 0 -31 30v105q0 31 31 31h446q31 0 31 -31v-105q0 -30 -31 -30h-108v-1311q0 -406 -375 -406q-144 0 -232 43q-14 7 -14 21q0 8 4 18z" />
<glyph unicode="K" horiz-adv-x="1359" d="M82 31v100q0 31 31 31h108v1063h-108q-31 0 -31 30v105q0 31 31 31h446q31 0 31 -31v-105q0 -30 -31 -30h-108v-439h106l381 439h-109q-30 0 -30 30v105q0 17 6.5 24t23.5 7h418q31 0 31 -31v-109q0 -30 -31 -30h-104l-406 -473l408 -586h133q31 0 31 -31v-100 q0 -31 -31 -31h-262q-30 0 -49 25l-412 593h-104v-456h108q31 0 31 -31v-100q0 -31 -31 -31h-446q-31 0 -31 31z" />
<glyph unicode="L" horiz-adv-x="1075" d="M82 31v100q0 31 31 31h108v1063h-108q-31 0 -31 30v105q0 31 31 31h487q31 0 31 -31v-105q0 -30 -31 -30h-149v-1063h428l-9 143q-3 31 29 31h115q30 0 30 -31v-403q0 -31 -30 -31h-115q-32 0 -29 31l7 98h-764q-31 0 -31 31z" />
<glyph unicode="M" horiz-adv-x="1861" d="M82 31v100q0 31 31 31h108v1063h-108q-31 0 -31 30v105q0 31 31 31h358q32 0 41 -29l422 -1100l432 1100q9 29 41 29h342q31 0 31 -31v-105q0 -30 -31 -30h-109v-1063h109q31 0 31 -31v-100q0 -17 -7 -24t-24 -7h-451q-30 0 -30 31v100q0 31 30 31h123v874l-403 -1007 q-12 -29 -43 -29h-135q-31 0 -43 29l-398 1009v-876h129q31 0 31 -31v-100q0 -17 -7 -24t-24 -7h-415q-31 0 -31 31z" />
<glyph unicode="N" horiz-adv-x="1521" d="M82 31v100q0 31 31 31h108v1063h-108q-31 0 -31 30v105q0 31 31 31h301q29 0 47 -27l682 -1036v897h-109q-30 0 -30 30v105q0 31 30 31h396q30 0 30 -31v-105q0 -30 -30 -30h-109v-1194q0 -31 -31 -31h-149q-31 0 -47 25l-695 1026v-889h170q31 0 31 -31v-100 q0 -31 -31 -31h-456q-31 0 -31 31z" />
<glyph unicode="O" d="M88 682q0 139 28.5 255t78.5 195t112.5 137.5t136 91.5t143 48.5t138.5 15.5q52 0 101 -5.5t111.5 -24t115 -48t105 -82.5t89.5 -123t59.5 -173.5t22.5 -229.5q0 -186 -50 -333.5t-138 -240.5t-205 -141.5t-254 -48.5q-284 0 -439 180t-155 527zM334 754q0 -59 3 -111 t13 -113.5t26.5 -111t45 -97.5t67 -80.5t94 -52.5t124.5 -20q79 0 141 26t104 72t69.5 113.5t39.5 146.5t12 174q0 120 -19.5 215.5t-62 171.5t-116 117t-175.5 41q-99 0 -172 -39.5t-114 -109.5t-60.5 -155t-19.5 -187z" />
<glyph unicode="P" horiz-adv-x="1157" d="M82 31v100q0 31 31 31h106v1065h-106q-31 0 -31 30v103q0 31 31 31q262 12 428 12q267 0 405.5 -99.5t138.5 -299.5q0 -206 -133 -327.5t-362 -121.5q-88 0 -141 6v-399h169q31 0 31 -31v-100q0 -31 -31 -31h-505q-31 0 -31 31zM449 719q18 -2 94 -2q70 0 123.5 13.5 t96 44.5t65 84.5t22.5 129.5q0 60 -18.5 104.5t-48.5 71t-74.5 42t-88 21t-98.5 5.5h-73v-514z" />
<glyph unicode="Q" d="M88 680q0 166 41.5 298.5t107 214t152 136t169.5 75.5t167 21q52 0 101 -6t111.5 -24t115 -48t105 -83.5t89.5 -123t59.5 -173.5t22.5 -230q0 -257 -91.5 -431t-252.5 -259q39 -140 186 -268q22 -20 5 -43l-48 -58q-9 -12 -23 -12q-10 0 -22 6q-269 138 -352 305 q-8 0 -24.5 -1t-24.5 -1q-284 0 -439 179t-155 526zM334 752q0 -59 3 -111t13 -113t26.5 -110.5t45 -97.5t67 -80t94 -52t124.5 -20q79 0 141 25.5t104 71.5t69.5 113t39.5 146t12 174q0 120 -19.5 216t-62 172t-116 117.5t-175.5 41.5q-80 0 -143 -26.5t-104.5 -72 t-68.5 -109t-38.5 -134t-11.5 -151.5z" />
<glyph unicode="R" horiz-adv-x="1261" d="M82 31v100q0 31 31 31h106v1065h-106q-31 0 -31 30v103q0 17 7 24t24 7q262 12 436 12q267 0 399.5 -93t132.5 -288q0 -134 -67 -235t-180 -154l239 -471h127q31 0 31 -31v-100q0 -31 -31 -31h-270q-30 0 -45 27l-279 551h-41q-63 0 -116 6v-422h129q30 0 30 -31v-100 q0 -17 -6.5 -24t-23.5 -7h-465q-31 0 -31 31zM449 739q16 -2 47 -2q167 0 258.5 65.5t91.5 196.5q0 57 -18 99t-47.5 67.5t-73 41t-87.5 21t-98 5.5h-73v-494z" />
<glyph unicode="S" horiz-adv-x="1058" d="M113 66v325q0 31 30 31h115q32 0 29 -31l-8 -170q27 -26 89 -46.5t128 -20.5q254 0 254 206q0 53 -19 94.5t-57.5 72t-84 52.5t-110.5 44q-63 21 -108.5 40.5t-96.5 53t-83 72t-53 96t-21 127.5q0 180 123 296.5t340 116.5q148 0 303 -45q28 -7 28 -37v-282 q0 -31 -30 -31h-115q-32 0 -29 31l6 137q-80 49 -184 49q-98 0 -158.5 -48t-60.5 -132q0 -87 55.5 -142.5t184.5 -103.5q149 -57 212 -95q177 -109 185 -302v-18q0 -202 -128.5 -316.5t-363.5 -114.5q-166 0 -344 54q-28 7 -28 37z" />
<glyph unicode="T" horiz-adv-x="1214" d="M41 1067v293q0 31 31 31h1071q31 0 31 -31v-293q0 -31 -31 -31h-125q-32 0 -29 31l10 160h-276v-1065h170q31 0 31 -31v-100q0 -31 -31 -31h-569q-31 0 -31 31v100q0 17 7 24t24 7h168v1065h-277l10 -160q3 -31 -28 -31h-125q-31 0 -31 31z" />
<glyph unicode="U" horiz-adv-x="1460" d="M51 1255v105q0 31 31 31h446q31 0 31 -31v-105q0 -30 -31 -30h-108v-643q0 -82 5 -137.5t24 -113.5t52.5 -92.5t92.5 -56.5t143 -22q95 0 161.5 28.5t104 85t54 129.5t16.5 172v650h-108q-31 0 -31 30v105q0 31 31 31h413q31 0 31 -31v-105q0 -30 -31 -30h-108v-693 q0 -88 -14 -164t-51.5 -150.5t-96.5 -126.5t-155.5 -84t-221.5 -32q-156 0 -263 35t-167 106t-85.5 166t-25.5 228v715h-108q-31 0 -31 30z" />
<glyph unicode="V" horiz-adv-x="1400" d="M10 1255v105q0 31 31 31h520q31 0 31 -31v-105q0 -30 -31 -30h-125l291 -981l332 981h-131q-31 0 -31 30v105q0 31 31 31h432q31 0 31 -31v-105q0 -30 -31 -30h-109l-420 -1196q-12 -29 -40 -29h-199q-29 0 -41 29l-383 1196h-127q-31 0 -31 30z" />
<glyph unicode="W" horiz-adv-x="2041" d="M10 1255v105q0 31 31 31h512q31 0 31 -31v-105q0 -30 -31 -30h-145l219 -953l299 1090q9 29 39 29h168q29 0 38 -29l297 -1096l236 959h-135q-31 0 -31 30v105q0 31 31 31h432q31 0 31 -31v-105q0 -30 -31 -30h-109l-315 -1194q-8 -31 -39 -31h-192q-30 0 -39 29 l-287 1020l-275 -1020q-9 -29 -38 -29h-226q-31 0 -39 31l-295 1194h-106q-31 0 -31 30z" />
<glyph unicode="X" horiz-adv-x="1386" d="M12 31v98q0 31 31 31h109l399 532l-389 533h-111q-31 0 -31 30v105q0 31 31 31h512q31 0 31 -31v-105q0 -30 -31 -30h-125l264 -369l269 369h-115q-31 0 -31 30v105q0 31 31 31h432q31 0 31 -31v-105q0 -30 -31 -30h-106l-379 -496l407 -569h125q31 0 31 -31v-98 q0 -31 -31 -31h-536q-31 0 -31 31v98q0 31 31 31h131l-279 391l-291 -391h129q31 0 31 -31v-98q0 -31 -31 -31h-446q-31 0 -31 31z" />
<glyph unicode="Y" horiz-adv-x="1359" d="M20 1255v105q0 31 31 31h520q31 0 31 -31v-105q0 -30 -31 -30h-145l295 -504l293 504h-137q-31 0 -31 30v105q0 31 31 31h432q30 0 30 -31v-105q0 -30 -30 -30h-109l-399 -672v-393h108q31 0 31 -31v-98q0 -31 -31 -31h-446q-31 0 -31 31v98q0 31 31 31h108v366l-413 699 h-107q-31 0 -31 30z" />
<glyph unicode="Z" horiz-adv-x="1204" d="M63 31v98q0 30 19 55l762 1047h-572l11 -164q3 -31 -29 -31h-125q-31 0 -31 31v293q0 31 31 31h967q30 0 30 -31v-98q0 -32 -18 -56l-770 -1046h627l-13 145q-3 31 29 31h121q31 0 31 -31v-403q0 -31 -31 -31h-115q-32 0 -29 31l7 98h-871q-31 0 -31 31z" />
<glyph unicode="[" horiz-adv-x="690" d="M258 -268v1757q0 23 8 31t31 8h297q23 0 31 -8t8 -31v-105q0 -23 -8 -30.5t-31 -5.5l-139 10v-1501l139 10q23 1 31 -6.5t8 -30.5v-98q0 -23 -8 -31t-31 -8h-297q-23 0 -31 8t-8 31z" />
<glyph unicode="\" horiz-adv-x="888" d="M51.5 1518.5q5.5 7.5 28.5 7.5h82q25 0 34 -7t17 -30l602 -1659q7 -22 1.5 -29.5t-28.5 -7.5h-79q-25 0 -35 7t-17 30l-604 1659q-7 22 -1.5 29.5z" />
<glyph unicode="]" horiz-adv-x="690" d="M57 -170q0 23 8 30.5t31 6.5l140 -10v1501l-140 -10q-23 -2 -31 5.5t-8 30.5v105q0 23 8 31t31 8h297q23 0 31 -8t8 -31v-1757q0 -23 -8 -31t-31 -8h-297q-23 0 -31 8t-8 31v98z" />
<glyph unicode="^" horiz-adv-x="1196" d="M139 672l344 712q12 29 43 29h97q31 0 43 -29l344 -712q12 -29 -19 -29h-141q-31 0 -43 29l-236 530l-237 -530q-12 -29 -43 -29h-135q-32 0 -17 29z" />
<glyph unicode="_" horiz-adv-x="1024" d="M-14 -252q0 23 8 31t31 8h974q23 0 31 -8t8 -31v-39q0 -23 -8 -31t-31 -8h-974q-23 0 -31 8t-8 31v39z" />
<glyph unicode="`" horiz-adv-x="1024" d="M393.5 1491.5q4.5 7.5 26.5 7.5h147q25 0 34 -7t17 -30l89 -237q7 -22 1.5 -29.5t-28.5 -7.5h-90q-25 0 -36.5 6.5t-21.5 28.5l-133 241q-10 20 -5.5 27.5z" />
<glyph unicode="a" horiz-adv-x="1073" d="M72 264q0 69 22.5 123.5t55 89.5t88 60.5t100.5 38t116.5 20.5t111 10t106.5 2v72q0 34 -3 59t-13.5 53t-29 45.5t-52 29.5t-80.5 12q-90 0 -130.5 -34t-54.5 -97q-7 -31 -30 -31h-132q-31 0 -28 31q4 62 27 111.5t60.5 82t89 54t108.5 31t122 9.5q85 0 150.5 -18 t106 -48t65.5 -74t35 -91.5t10 -104.5v-538h88q31 0 31 -31v-100q0 -31 -31 -31h-242q-27 0 -30 31l-15 94q-111 -150 -319 -150q-62 0 -114 15t-95.5 47.5t-68.5 90.5t-25 136zM289 285q0 -142 162 -142q106 0 165.5 50.5t59.5 115.5v158q-41 0 -58 -0.5t-57 -2.5t-60 -5 t-54 -9.5t-52 -15t-41.5 -22.5t-35.5 -31.5t-20.5 -42t-8.5 -53.5z" />
<glyph unicode="b" horiz-adv-x="1196" d="M41 1389v108q0 17 7 24t24 7h309q31 0 31 -31v-637q49 83 131.5 129.5t179.5 46.5q189 0 295 -124.5t106 -368.5q0 -147 -34 -258t-94.5 -177.5t-139.5 -99.5t-174 -33q-113 0 -196 40t-119 100l-13 -84q-3 -31 -30 -31h-250q-31 0 -31 31v100q0 31 31 31h108v1196h-110 q-31 0 -31 31zM412 256q3 -4 9.5 -11.5t28.5 -25.5t47 -32t65 -25.5t83 -11.5q116 0 182 80t66 270q0 59 -4.5 103.5t-19 93t-40 79.5t-70 51.5t-106.5 20.5q-96 0 -168.5 -62.5t-72.5 -167.5v-362z" />
<glyph unicode="c" horiz-adv-x="958" d="M72 502q0 113 29 208t86.5 169t152 115.5t217.5 41.5q95 0 166.5 -28.5t113 -78.5t61.5 -112.5t20 -136.5q0 -17 -8.5 -22t-26.5 -5h-123q-17 0 -25.5 6t-9.5 25q-10 180 -182 180q-123 0 -180.5 -85t-57.5 -259q0 -373 289 -373q42 0 83 9t66.5 19t65.5 28q31 12 43 -19 l37 -90q11 -27 -17 -43q-124 -76 -315 -76q-127 0 -221.5 38.5t-151.5 109.5t-84.5 165.5t-27.5 213.5z" />
<glyph unicode="d" horiz-adv-x="1193" d="M72 477q0 144 35 253.5t97.5 175t142 98t175.5 32.5q91 0 160 -33.5t102 -80.5v436h-108q-31 0 -31 31v108q0 17 7 24t24 7h307q31 0 31 -31v-1335h88q31 0 31 -31v-100q0 -31 -31 -31h-232q-27 0 -30 31l-17 121q-105 -177 -334 -177q-200 0 -308.5 125.5t-108.5 376.5z M303 512q0 -51 3 -90.5t11.5 -83t26 -74.5t43 -57t66 -39.5t92.5 -13.5q94 0 166.5 63t72.5 168v360q-3 5 -9 12t-27 26.5t-45.5 34t-63.5 26.5t-82 12q-117 0 -185.5 -81t-68.5 -263z" />
<glyph unicode="e" horiz-adv-x="1001" d="M72 508q0 104 28.5 197t84.5 168t147.5 119t208.5 44q90 0 161 -29t115 -75t72.5 -110t39.5 -128t11 -135q0 -45 -2 -70q-2 -20 -8.5 -26t-28.5 -6h-602q5 -71 19.5 -123t46 -96.5t87.5 -67.5t136 -23q110 0 231 54q29 14 41 -17l39 -94q10 -25 -18 -41 q-59 -32 -148.5 -53t-189.5 -21q-124 0 -216.5 39t-147 111.5t-81 167.5t-26.5 215zM299 608h426v10q0 246 -201 246q-63 0 -109 -24t-69.5 -64t-34 -81t-12.5 -87z" />
<glyph unicode="f" horiz-adv-x="733" d="M41 31v100q0 31 31 31h127v686h-127q-31 0 -31 31v104q0 31 31 31h127v198q0 55 6.5 100.5t27 92t54 78t91 51.5t134.5 20q122 0 240 -51q18 -8 18 -26q0 -6 -2 -13l-31 -102q-9 -25 -35 -14q-81 36 -145 36q-36 0 -60 -9.5t-37.5 -25t-20.5 -46t-9 -60t-2 -80.5v-149 h248q31 0 31 -31v-104q0 -31 -31 -31h-248v-686h217q31 0 31 -31v-100q0 -31 -31 -31h-573q-31 0 -31 31z" />
<glyph unicode="g" horiz-adv-x="1167" d="M72 477q0 117 23 211.5t63.5 158.5t97 107t120 62.5t136.5 19.5q181 0 297 -133l20 80q9 31 37 31h250q31 0 31 -31v-106q0 -31 -31 -31h-112v-727q0 -120 -11 -244q-16 -174 -128 -270.5t-324 -96.5q-108 0 -196.5 19.5t-139.5 42.5q-26 10 -17 41l37 108q9 30 41 17 q128 -51 250 -51q132 0 195 61t63 217v160q-90 -148 -303 -148q-188 0 -293.5 129t-105.5 373zM303 514q0 -67 5.5 -117.5t21 -98.5t41.5 -78.5t69.5 -49t102.5 -18.5q90 0 160.5 63.5t70.5 167.5v365q-3 4 -9 11.5t-27 26t-45.5 33t-63.5 26t-82 11.5q-109 0 -176.5 -80.5 t-67.5 -261.5z" />
<glyph unicode="h" horiz-adv-x="1226" d="M41 31v100q0 31 31 31h110v1198h-110q-31 0 -31 31v106q0 31 31 31h309q31 0 31 -31v-631q115 170 317 170q156 0 237 -88t81 -260v-526h120q31 0 31 -31v-100q0 -31 -31 -31h-448q-31 0 -31 31v100q0 31 31 31h98v424q0 50 -2.5 82.5t-12.5 67t-29 54t-52 32t-80 12.5 q-94 0 -161.5 -62t-67.5 -139v-471h125q30 0 30 -31v-100q0 -17 -6.5 -24t-23.5 -7h-465q-31 0 -31 31z" />
<glyph unicode="i" horiz-adv-x="602" d="M33 31q0 -31 30 -31h488q31 0 31 31v100q0 31 -31 31h-129v821q0 31 -31 31h-309q-31 0 -31 -31v-106q0 -31 31 -31h111v-684h-130q-30 0 -30 -31v-100zM135 1300q0 64 40 106t106 42q68 0 107.5 -41.5t39.5 -106.5q0 -63 -40.5 -104t-106.5 -41q-67 0 -106.5 41 t-39.5 104z" />
<glyph unicode="j" horiz-adv-x="591" d="M-203 -408l41 113q11 27 39 16q69 -24 143 -24q87 0 130 58.5t43 181.5v909h-111q-31 0 -31 31v106q0 17 7 24t24 7h309q31 0 31 -31v-1067q0 -408 -363 -408q-71 0 -140 13t-105 30q-20 10 -20 27q0 6 3 14zM135 1300q0 64 40 106t106 42q68 0 107.5 -41.5t39.5 -106.5 q0 -63 -40.5 -104t-106.5 -41q-67 0 -106.5 41t-39.5 104z" />
<glyph unicode="k" horiz-adv-x="1159" d="M51 1393v104q0 31 31 31h309q31 0 31 -31v-817h104l318 311q23 23 53 23h160q30 0 30 -31v-106q0 -31 -30 -31h-125l-225 -219l280 -465h121q31 0 31 -31v-100q0 -31 -31 -31h-264q-29 0 -47 27l-308 495h-67v-360h108q31 0 31 -31v-100q0 -31 -31 -31h-446q-31 0 -31 31 v100q0 31 31 31h109v1200h-111q-31 0 -31 31z" />
<glyph unicode="l" horiz-adv-x="602" d="M33 31v100q0 31 30 31h130v1198h-111q-31 0 -31 31v106q0 17 7 24t24 7h309q31 0 31 -31v-1335h129q31 0 31 -31v-100q0 -31 -31 -31h-488q-30 0 -30 31z" />
<glyph unicode="m" horiz-adv-x="1828" d="M51 877v106q0 31 31 31h280q28 0 31 -31l17 -119q52 85 133.5 128.5t175.5 43.5q223 0 291 -180q112 180 321 180q156 0 237 -88t81 -260v-526h116q31 0 31 -31v-100q0 -31 -31 -31h-450q-31 0 -31 31v100q0 31 31 31h104v424q0 50 -2.5 82.5t-12.5 67t-29 54t-52 32 t-80 12.5q-88 0 -147.5 -54t-59.5 -125v-493h99q30 0 30 -31v-100q0 -31 -30 -31h-420q-31 0 -31 31v100q0 31 31 31h92v424q0 50 -2.5 82.5t-12.5 67t-29 54t-52 32t-80 12.5q-93 0 -151 -61t-58 -140v-471h125q31 0 31 -31v-100q0 -31 -31 -31h-463q-31 0 -31 31v100 q0 31 31 31h109v684h-111q-31 0 -31 31z" />
<glyph unicode="n" horiz-adv-x="1236" d="M51 874v109q0 31 31 31h278q27 0 33 -31l19 -119q114 172 327 172q156 0 237 -88t81 -260v-526h119q30 0 30 -31v-100q0 -31 -30 -31h-447q-31 0 -31 31v100q0 31 31 31h98v424q0 50 -2.5 82.5t-12.5 67t-29 54t-52 32t-80 12.5q-94 0 -161.5 -62t-67.5 -139v-471h127 q31 0 31 -31v-100q0 -31 -31 -31h-465q-31 0 -31 31v100q0 31 31 31h109v684h-111q-18 0 -24.5 5.5t-6.5 22.5z" />
<glyph unicode="o" horiz-adv-x="1089" d="M72 492q0 124 32 222t81.5 157t116 97.5t129 53t126.5 14.5q40 0 76.5 -3.5t84.5 -16.5t88 -34t80.5 -59.5t68.5 -89.5t45.5 -127.5t17.5 -170.5q0 -140 -38.5 -248.5t-106.5 -175.5t-156.5 -101.5t-192.5 -34.5q-214 0 -333 130.5t-119 386.5zM303 537q0 -394 240 -394 q123 0 179 90.5t56 272.5q0 179 -56 270.5t-183 91.5q-236 0 -236 -331z" />
<glyph unicode="p" horiz-adv-x="1196" d="M41 877v106q0 17 7 24t24 7h278q25 0 31 -31l20 -123q50 84 134 130t188 46q189 0 295 -124t106 -365q0 -151 -35.5 -264t-98 -179t-141 -97.5t-171.5 -31.5q-162 0 -266 86v-368h217q30 0 30 -31v-102q0 -31 -30 -31h-555q-31 0 -31 31v100q0 31 31 31h108v1155h-110 q-31 0 -31 31zM412 231q4 -3 10.5 -9t29.5 -21t48.5 -26t64.5 -20.5t80 -9.5q118 0 183 81t65 274q0 61 -4.5 106.5t-19 93.5t-40 78.5t-70 50t-106.5 19.5q-96 0 -168.5 -60.5t-72.5 -164.5v-392z" />
<glyph unicode="q" horiz-adv-x="1177" d="M72 477q0 141 35 250t97 175.5t142.5 100t175.5 33.5t174.5 -38t120.5 -99l21 84q5 17 11.5 24t20.5 7h256q31 0 31 -31v-106q0 -31 -31 -31h-112v-1157h108q31 0 31 -31v-98q0 -17 -7 -24t-24 -7h-307q-31 0 -31 31v569q-48 -76 -129.5 -115t-181.5 -39 q-188 0 -294.5 128.5t-106.5 373.5zM303 520q0 -64 4.5 -112t19 -99t40 -83t70 -53t106.5 -21q101 0 171 64t70 171v358q-3 4 -9 11.5t-27 26.5t-45.5 33t-63.5 26t-82 12q-115 0 -184.5 -81.5t-69.5 -252.5z" />
<glyph unicode="r" horiz-adv-x="923" d="M51 877v106q0 17 7 24t24 7h270q29 0 35 -31l23 -145q34 81 111.5 139.5t180.5 58.5q32 0 74.5 -5.5t57.5 -10.5q16 -6 20 -13t4 -24v-276q0 -31 -31 -31h-133q-31 0 -28 31l8 118q-10 2 -35 2q-95 0 -156 -76.5t-61 -205.5v-383h225q31 0 31 -31v-100q0 -31 -31 -31 h-563q-31 0 -31 31v100q0 31 31 31h109v684h-111q-31 0 -31 31z" />
<glyph unicode="s" horiz-adv-x="903" d="M113 55v217q0 31 30 31h119q32 0 29 -31l-6 -106q54 -41 157 -41q183 0 183 129q0 39 -17.5 67.5t-47 46.5t-67.5 31.5t-80.5 25.5t-85 25.5t-80.5 35.5t-67.5 51t-47 76t-17.5 108q0 135 104.5 225t286.5 90q135 0 254 -37q17 -4 22.5 -11.5t5.5 -24.5v-218 q0 -30 -30 -30h-119q-32 0 -27 30l11 105q-64 33 -136 33q-163 0 -163 -115q0 -39 22.5 -67t58.5 -44t82.5 -32.5t95.5 -29.5t95.5 -37t82.5 -54t58.5 -81t22.5 -118q0 -155 -108.5 -242.5t-305.5 -87.5q-134 0 -289 41q-16 4 -21 12.5t-5 26.5z" />
<glyph unicode="t" horiz-adv-x="755" d="M31 877v106q0 31 30 31h117v276q0 31 31 31h168q31 0 31 -31v-276h206q31 0 31 -31v-106q0 -31 -31 -31h-206v-516q0 -96 24 -139.5t98 -43.5q58 0 125 29q23 9 33 -16l37 -94q3 -7 3 -13q0 -17 -21 -28q-43 -22 -109 -36t-125 -14q-71 0 -124 14t-84 45.5t-50 60.5 t-26.5 81.5t-9 84t-1.5 91.5v494h-117q-30 0 -30 31z" />
<glyph unicode="u" horiz-adv-x="1226" d="M41 877v106q0 17 7 24t24 7h307q31 0 31 -31v-598q0 -62 5 -98t22 -68.5t53.5 -46.5t95.5 -14q94 0 161.5 61.5t67.5 138.5v488h-129q-31 0 -31 31v106q0 31 31 31h328q30 0 30 -31v-821h91q30 0 30 -31v-100q0 -31 -30 -31h-230q-25 0 -31 31l-18 114 q-131 -170 -344 -170q-332 0 -332 349v522h-108q-31 0 -31 31z" />
<glyph unicode="v" horiz-adv-x="1062" d="M0 877v106q0 31 31 31h268q30 0 39 -29l237 -758l216 619h-105q-31 0 -31 31v106q0 31 31 31h299q24 0 35 -19q6 -10 6 -22q0 -10 -4 -21l-350 -923q-9 -29 -41 -29h-176q-29 0 -41 29l-281 817h-102q-31 0 -31 31z" />
<glyph unicode="w" horiz-adv-x="1599" d="M0 877v106q0 31 31 31h268q31 0 39 -31l186 -731l203 733q9 29 39 29h164q30 0 39 -29l209 -737l182 598h-98q-31 0 -31 31v106q0 31 31 31h262q25 0 36 -16q7 -11 7 -25q0 -7 -2 -15l-283 -929q-9 -29 -39 -29h-184q-31 0 -39 31l-195 723l-202 -725q-9 -29 -39 -29 h-185q-30 0 -39 29l-223 817h-106q-31 0 -31 31z" />
<glyph unicode="x" horiz-adv-x="1132" d="M47 31v100q0 31 31 31h106l260 346l-204 338h-131q-31 0 -31 31v106q0 31 31 31h256q30 0 45 -27l180 -317l131 176h-76q-31 0 -31 31v106q0 31 31 31h389q17 0 24 -7t7 -24v-106q0 -31 -31 -31h-123l-229 -307l231 -377h142q30 0 30 -31v-100q0 -31 -30 -31h-269 q-29 0 -47 27l-200 340l-150 -205h113q30 0 30 -31v-100q0 -31 -30 -31h-424q-31 0 -31 31z" />
<glyph unicode="y" horiz-adv-x="1062" d="M-10 -431q-1 3 -1 6q0 7 3 17l35 101q8 27 39 18q101 -33 161 -33q62 0 95.5 32t70.5 132l51 135l-311 869h-102q-31 0 -31 31v106q0 31 31 31h268q30 0 39 -29l240 -745l213 606h-105q-31 0 -31 31v106q0 31 31 31h299q24 0 35 -19q6 -10 6 -22q0 -10 -4 -21l-438 -1145 q-17 -43 -28.5 -70t-30.5 -62t-36.5 -56.5t-43.5 -45t-55.5 -36t-69.5 -21t-87 -8.5q-64 0 -127.5 14.5t-99.5 31.5q-14 7 -16 15z" />
<glyph unicode="z" horiz-adv-x="925" d="M72 31v119q0 31 18 55l510 645h-340l4 -109q3 -30 -28 -30h-113q-31 0 -31 30v242q0 31 31 31h702q31 0 31 -31v-115q0 -31 -18 -55l-523 -653h379l-4 129q-3 30 29 30h115q30 0 30 -30l-2 -258q0 -31 -31 -31h-729q-30 0 -30 31z" />
<glyph unicode="{" horiz-adv-x="671" d="M82 598v98q0 23 8 31t31 8h160l-56 754q-1 23 6.5 31t30.5 8h313q23 0 31 -8t8 -31v-105q0 -23 -8 -30.5t-31 -5.5l-139 10v-1501l139 10q23 1 31 -6.5t8 -30.5v-98q0 -23 -8 -31t-31 -8h-313q-23 0 -30.5 8t-6.5 31l56 827h-160q-23 0 -31 8t-8 31z" />
<glyph unicode="|" horiz-adv-x="526" d="M184 -168v1655q0 23 8 31t31 8h80q23 0 31 -8t8 -31v-1655q0 -23 -8 -31t-31 -8h-80q-23 0 -31 8t-8 31z" />
<glyph unicode="}" horiz-adv-x="675" d="M82 -170q0 23 8 30.5t31 6.5l139 -10v1501l-139 -10q-23 -2 -31 5.5t-8 30.5v105q0 23 8 31t31 8h313q23 0 30.5 -8t6.5 -31l-55 -754h159q23 0 31 -8t8 -31v-98q0 -23 -8 -31t-31 -8h-159l55 -827q1 -23 -6.5 -31t-30.5 -8h-313q-23 0 -31 8t-8 31v98z" />
<glyph unicode="~" horiz-adv-x="1302" d="M147 473q0 78 21 135.5t54.5 87.5t68 44t69.5 14q77 0 274 -56.5t269 -56.5q48 0 73 15.5t25 62.5q0 33 31 33h76q31 0 31 -31q3 -146 -60 -212.5t-161 -66.5q-74 0 -186.5 27.5t-211 55.5t-139.5 28q-49 0 -66.5 -19t-17.5 -67q0 -16 -6.5 -21.5t-22.5 -5.5h-90 q-31 0 -31 33z" />
<glyph unicode="&#xa1;" horiz-adv-x="518" d="M119 920q0 56 37.5 91.5t101.5 35.5q65 0 101 -37t36 -92q0 -56 -38 -90.5t-101 -34.5q-60 0 -98.5 36.5t-38.5 90.5zM147 -33l46 686q2 24 9.5 31.5t30.5 7.5h50q23 0 31 -8t10 -31l45 -682v-309q0 -23 -8 -31t-31 -8h-144q-23 0 -31 8t-8 31v305z" />
<glyph unicode="&#xa2;" horiz-adv-x="958" d="M131 559q0 100 26.5 185.5t79 152.5t137.5 105.5t195 39.5l19 140q5 24 13.5 31.5t31.5 7.5h8q23 0 29.5 -8t3.5 -31l-19 -144q122 -23 186 -108.5t64 -214.5q1 -23 -6.5 -31t-30.5 -8h-90q-24 0 -32 7.5t-11 31.5q-11 135 -102 162l-84 -631q18 -4 57 -4q90 0 187 41 q22 9 32 5t17 -26l24 -72q9 -22 5.5 -32.5t-23.5 -20.5q-131 -67 -281 -67h-43l-20 -158q-5 -24 -13.5 -31.5t-31.5 -7.5h-8q-23 0 -29.5 8t-3.5 31l22 172q-156 36 -232.5 159.5t-76.5 315.5zM340 567q0 -101 31.5 -179.5t93.5 -119.5l82 615q-102 -7 -154.5 -91 t-52.5 -225z" />
<glyph unicode="&#xa3;" horiz-adv-x="929" d="M25 88q4 12 24 25q56 43 82 90q32 58 43.5 120t13.5 154h-84q-23 0 -30 8t-4 31l6 49q3 23 11.5 31t31.5 8h78l8 133q13 181 115 265.5t260 84.5q92 0 227 -32q23 -6 30 -15t7 -34v-220q0 -23 -8 -30.5t-31 -7.5h-86q-23 0 -30.5 7.5t-6.5 30.5l8 105q-56 39 -137 39 q-74 0 -104.5 -41t-36.5 -137l-9 -148h295q23 0 29.5 -8t3.5 -31l-6 -53q-3 -24 -12 -31.5t-33 -7.5h-285q-5 -104 -27.5 -165t-86.5 -138h432l-8 106q-2 23 5.5 31t30.5 8h99q23 0 31 -8t8 -31v-237q0 -23 -8 -31t-31 -8h-551q-95 0 -209 -8q-24 -3 -33 4t-14 31l-6 24 q-6 25 -2 37z" />
<glyph unicode="&#xa5;" horiz-adv-x="1071" d="M35 920v88q0 23 8 31t31 8h391q23 0 31 -8t8 -31v-88q0 -23 -7.5 -30t-31.5 -7h-86l190 -260l193 260h-86q-24 0 -31.5 7t-7.5 30v88q0 23 8 31t31 8h309q23 0 31 -8t8 -31v-88q0 -23 -7.5 -30t-31.5 -7h-65l-246 -328h168q23 0 31 -8t8 -31v-27q0 -23 -8 -30.5t-31 -7.5 h-213v-91h213q23 0 31 -7.5t8 -30.5v-27q0 -23 -8 -31t-31 -8h-213v-94h67q23 1 31 -6.5t8 -30.5v-86q0 -23 -8 -31t-31 -8h-321q-23 0 -31 8t-8 31v86q0 23 8 30.5t31 6.5h65v94h-213q-23 0 -31 8t-8 31v27q0 23 8 30.5t31 7.5h213v91h-213q-23 0 -31 7.5t-8 30.5v27 q0 23 8 31t31 8h168l-250 328h-71q-24 0 -31.5 7t-7.5 30z" />
<glyph unicode="&#xa6;" horiz-adv-x="526" d="M184 -168v606q0 23 8 31t31 8h80q23 0 31 -8t8 -31v-606q0 -23 -8 -31t-31 -8h-80q-23 0 -31 8t-8 31zM184 946v541q0 23 8 31t31 8h80q23 0 31 -8t8 -31v-541q0 -23 -8 -31t-31 -8h-80q-23 0 -31 8t-8 31z" />
<glyph unicode="&#xa7;" horiz-adv-x="1173" d="M113 936q0 136 59 245t177 175.5t276 66.5q63 0 115.5 -7.5t105.5 -28.5t90 -54.5t62 -89t30 -129.5q2 -24 -5 -31.5t-30 -7.5h-102q-23 0 -31.5 8t-11.5 31q-11 73 -56.5 113.5t-121.5 40.5q-77 0 -121.5 -29.5t-44.5 -91.5q0 -63 46.5 -140.5t133.5 -185.5 q8 -10 43.5 -53.5t46.5 -57.5t42.5 -55t43.5 -60.5t37.5 -59t36.5 -64.5t27.5 -63.5t23.5 -70t13 -69.5t6 -75q0 -159 -69.5 -288.5t-189.5 -202.5t-266 -73q-59 0 -106.5 7.5t-95 28.5t-80 55t-54.5 90.5t-26 132.5q-2 24 5 31.5t30 7.5h100q24 0 32 -7.5t11 -31.5 q7 -87 49 -122.5t117 -35.5q66 0 109.5 35t43.5 114q0 92 -60 199.5t-189 272.5q-52 67 -80.5 105.5t-67 98t-57.5 105t-33 104t-14 117.5zM295 956q0 -69 29.5 -140.5t76 -136t102 -132.5t108.5 -141t94.5 -149t62 -169t8.5 -190q51 113 51 252q0 83 -29 164.5t-75 149.5 t-101 136t-108 134t-95 132t-62.5 142t-10.5 153l-12 6q-39 -86 -39 -211z" />
<glyph unicode="&#xa8;" horiz-adv-x="1024" d="M131 1346q0 57 35 89.5t92 32.5q61 0 94 -31.5t33 -90.5t-36 -93t-91 -34q-58 0 -92.5 34t-34.5 93zM547 1346q0 57 35 89.5t92 32.5q61 0 94 -31.5t33 -90.5t-36 -93t-91 -34q-58 0 -92.5 34t-34.5 93z" />
<glyph unicode="&#xa9;" horiz-adv-x="1802" d="M160 694q0 206 93 371.5t260 259.5t378 94q163 0 303.5 -55t238.5 -150t153.5 -226t55.5 -281q0 -212 -94 -378.5t-265.5 -260t-391.5 -93.5q-223 0 -390 93t-254 255.5t-87 370.5zM248 694q0 -288 180.5 -468.5t460.5 -180.5q194 0 344.5 78t235.5 226t85 345 q0 190 -86 340t-237.5 232t-341.5 82q-291 0 -466 -181t-175 -473zM545 702q0 85 22 157.5t65.5 130.5t118 91t171.5 33q129 0 196 -66t70 -174q0 -23 -8 -30.5t-31 -7.5h-47q-23 0 -31.5 7.5t-11.5 30.5q-7 57 -40.5 83t-98.5 26q-197 0 -197 -274q0 -135 41.5 -206 t142.5 -71q69 0 106 24.5t46 84.5q3 23 11.5 31t31.5 8h47q23 0 30.5 -8t6.5 -31q-3 -108 -77 -174t-214 -66q-94 0 -163.5 32t-109.5 88.5t-58.5 126.5t-18.5 154z" />
<glyph unicode="&#xaa;" horiz-adv-x="1085" d="M203 872q0 49 16 88t39 64.5t63 44t71.5 27.5t83 14.5t79 7t76.5 2.5v51q0 31 -3.5 51t-15.5 40.5t-39 30.5t-69 10q-63 0 -90 -24.5t-37 -70.5q-7 -20 -23 -20h-108q-21 0 -21 20q7 110 89 163.5t214 53.5q85 0 142.5 -18.5t86 -53.5t39.5 -74.5t11 -92.5v-381h61 q23 0 23 -23v-75q0 -23 -23 -23h-188q-20 0 -23 23l-10 67q-77 -108 -227 -108q-95 0 -156 48.5t-61 157.5zM377 889q0 -96 100 -96q76 0 117 35t41 81v109q-34 0 -52.5 -0.5t-50 -2.5t-49.5 -7t-41 -14t-35 -22.5t-21 -34.5t-9 -48z" />
<glyph unicode="&#xab;" horiz-adv-x="1009" d="M141.5 588q0.5 13 10.5 35l180 350q10 22 21 28.5t36 6.5h119q22 0 26.5 -7.5t-4.5 -27.5l-194 -383l188 -383q9 -20 4.5 -27.5t-26.5 -7.5h-123q-25 0 -35.5 6.5t-19.5 28.5l-174 346q-9 22 -8.5 35zM480.5 588q0.5 13 11.5 35l180 350q10 22 21 28.5t36 6.5h119 q22 0 26.5 -7.5t-4.5 -27.5l-194 -383l188 -383q9 -20 4.5 -27.5t-26.5 -7.5h-123q-25 0 -35.5 6.5t-19.5 28.5l-175 346q-9 22 -8.5 35z" />
<glyph unicode="&#xac;" horiz-adv-x="1085" d="M72 623v55q0 23 8 31t31 8h864q23 0 31 -8t8 -31v-297q0 -23 -8 -31t-31 -8h-51q-23 0 -31 8t-8 31v203h-774q-23 0 -31 8t-8 31z" />
<glyph unicode="&#xad;" horiz-adv-x="577" d="M61 485v80q0 23 8 31t31 8h377q23 0 31 -8t8 -31v-80q0 -23 -8 -31t-31 -8h-377q-23 0 -31 8t-8 31z" />
<glyph unicode="&#xae;" horiz-adv-x="1019" d="M133 1157q0 157 104 260t263 103q164 0 270.5 -101.5t106.5 -253.5q0 -162 -105 -264t-272 -102q-168 0 -267.5 100t-99.5 258zM190 1157q0 -139 87 -225t223 -86q142 0 230.5 84t88.5 227q0 140 -90 228t-229 88q-142 0 -226 -87t-84 -229zM342 999v15q0 9 3 11.5 t11 2.5h25v275h-23q-9 0 -12.5 3t-3.5 13v22q0 17 18 17h146q129 0 129 -98q0 -70 -70 -97l70 -135h37q9 0 12.5 -2.5t3.5 -11.5v-15q0 -14 -16 -14h-80q-16 0 -21 12l-73 150h-47v-119h24q10 0 13.5 -3.5t3.5 -14.5v-9q0 -16 -17 -16h-117q-16 0 -16 14zM451 1196h32 q40 0 59 13t19 46q0 48 -76 48h-34v-107z" />
<glyph unicode="&#xaf;" horiz-adv-x="1024" d="M207 1313v88q0 23 8 31t31 8h532q23 0 31 -8t8 -31v-88q0 -23 -8 -31t-31 -8h-532q-23 0 -31 8t-8 31z" />
<glyph unicode="&#xb0;" horiz-adv-x="688" d="M61 1174q0 117 83 199.5t200 82.5t200 -82.5t83 -199.5t-83 -200t-200 -83t-200 83t-83 200zM150 1174q0 -82 56 -138.5t138 -56.5t138.5 56.5t56.5 138.5t-56.5 138t-138.5 56t-138 -56t-56 -138z" />
<glyph unicode="&#xb1;" horiz-adv-x="1085" d="M72 39v55q0 23 8 31t31 8h354v424h-354q-23 0 -31 8t-8 31v55q0 23 8 31t31 8h354v354q0 23 8 31t31 8h71q23 0 31 -8t8 -31v-354h361q23 0 31 -8t8 -31v-55q0 -23 -8 -31t-31 -8h-361v-424h361q23 0 31 -8t8 -31v-55q0 -23 -8 -31t-31 -8h-864q-23 0 -31 8t-8 31z" />
<glyph unicode="&#xb2;" horiz-adv-x="706" d="M57 1325q12 113 88 171t199 58q283 0 283 -247q0 -202 -301 -379h292q31 0 31 -31v-72q0 -30 -31 -30h-485q-23 0 -31 8t-8 31v32q0 22 7 33t28 23q53 34 91.5 61t85.5 67t76.5 76.5t50 82.5t20.5 91q0 62 -27 93.5t-96 31.5q-115 0 -131 -100q-4 -25 -13 -32t-34 -7h-60 q-23 0 -30.5 8t-4.5 31z" />
<glyph unicode="&#xb3;" horiz-adv-x="686" d="M45 965q-3 23 4.5 31t30.5 8h72q23 0 31.5 -8t11.5 -31q6 -44 33 -65t87 -21q66 0 105 28t39 86t-29.5 82t-91.5 29q-70 4 -90 4q-23 0 -31 8t-8 31v41q0 23 8 31t31 8q42 0 88 4q59 6 83.5 33.5t24.5 74.5q0 97 -127 97q-103 0 -120 -82q-6 -25 -15 -32t-32 -7h-48 q-24 0 -31 7.5t-5 31.5q9 99 86 149.5t190 50.5q125 0 193.5 -51.5t68.5 -146.5q0 -114 -131 -178q63 -12 106.5 -56t43.5 -121q0 -113 -85 -176t-227 -63q-252 0 -266 203z" />
<glyph unicode="&#xb4;" horiz-adv-x="1024" d="M340.5 1195.5q-5.5 7.5 1.5 29.5l86 237q8 23 17 30t34 7h148q22 0 26 -7.5t-6 -27.5l-133 -241q-10 -22 -21 -28.5t-36 -6.5h-88q-23 0 -28.5 7.5z" />
<glyph unicode="&#xb5;" horiz-adv-x="1226" d="M180 -383v1366q0 17 7 24t24 7h168q31 0 31 -31v-602q0 -62 5 -98t22 -68.5t53.5 -46.5t95.5 -14q94 0 161.5 63t67.5 141v625q0 31 31 31h168q30 0 30 -31v-821h91q30 0 30 -31v-100q0 -31 -30 -31h-230q-25 0 -31 31l-18 114q-118 -159 -315 -159q-84 0 -146 20v-389 q0 -31 -30 -31h-154q-17 0 -24 7t-7 24z" />
<glyph unicode="&#xb6;" horiz-adv-x="1075" d="M123 977q0 95 32.5 169t85 119.5t125.5 74.5t145.5 40t154.5 11h288q23 0 31 -8t8 -31v-92q0 -23 -8 -30.5t-31 -6.5h-100v-1143q0 -408 -362 -408q-116 0 -220 37q-21 7 -25.5 17t3.5 32l33 92q8 22 17 26t32 -3q62 -20 141 -20q80 0 119 56.5t39 188.5v467h-58 q-214 0 -332 105.5t-118 306.5z" />
<glyph unicode="&#xb7;" horiz-adv-x="518" d="M104 713q0 59 43 100t109 41q70 0 113 -38.5t43 -100.5q0 -61 -41 -102.5t-113 -41.5t-113 40t-41 102z" />
<glyph unicode="&#xb8;" horiz-adv-x="1024" d="M387 -410q-18 24 2 41q48 41 66 65.5t18 49.5t-9.5 40.5t-35.5 35.5l-18 14q-22 19 -7 43l89 127h86l-46 -72l33 -28q41 -36 59.5 -63.5t18.5 -63.5q0 -45 -57.5 -103t-139.5 -112q-26 -17 -43 6z" />
<glyph unicode="&#xb9;" horiz-adv-x="616" d="M111 1434v61q0 23 8 31t31 8h231q23 0 31 -8t8 -31v-563h94q23 1 31 -6.5t8 -30.5v-61q0 -23 -8 -31t-31 -8h-356q-23 0 -31 8t-8 31v61q0 23 8 30.5t31 6.5h88v469l-96 -4q-23 -1 -31 6.5t-8 30.5z" />
<glyph unicode="&#xba;" horiz-adv-x="1089" d="M197 1036q0 87 23.5 156.5t60.5 112t85.5 70.5t94.5 39t92 11q31 0 57 -2t62.5 -10.5t65 -22.5t59 -41t50.5 -64t33 -93t13 -125q0 -98 -28.5 -175t-78.5 -125.5t-115 -73.5t-141 -25q-157 0 -245 93t-88 275zM367 1077q0 -282 176 -282q174 0 174 252q0 126 -41.5 192 t-134.5 66q-89 0 -131.5 -63.5t-42.5 -164.5z" />
<glyph unicode="&#xbb;" horiz-adv-x="1009" d="M135.5 179.5q-4.5 7.5 5.5 27.5l195 385l-191 381q-9 20 -4 27.5t27 7.5h123q25 0 35.5 -6.5t19.5 -28.5l174 -346q9 -22 8.5 -35t-10.5 -35l-180 -350q-10 -22 -21 -28.5t-36 -6.5h-119q-22 0 -26.5 7.5zM475.5 179.5q-4.5 7.5 5.5 27.5l195 385l-191 381q-9 20 -4 27.5 t27 7.5h123q25 0 35.5 -6.5t19.5 -28.5l174 -346q9 -22 8.5 -35t-10.5 -35l-180 -350q-10 -22 -21 -28.5t-36 -6.5h-119q-22 0 -26.5 7.5z" />
<glyph unicode="&#xbc;" horiz-adv-x="1843" d="M203 1214v62q0 23 8 31t31 8h231q23 0 31 -8t8 -31v-563h94q23 1 31 -6.5t8 -30.5v-62q0 -23 -8 -31t-31 -8h-356q-23 0 -31 8t-8 31v62q0 23 8 30.5t31 6.5h88v469l-96 -4q-23 -2 -31 5.5t-8 30.5zM575.5 -27.5q-4.5 7.5 4.5 27.5l653 1356q11 22 21 28.5t34 6.5h82 q22 0 27 -7.5t-4 -27.5l-656 -1356q-11 -22 -21 -28.5t-34 -6.5h-80q-22 0 -26.5 7.5zM1073 188v39q0 34 23 70l280 412q13 18 25.5 24t36.5 6h98q23 0 31 -8t8 -31v-432h90q23 0 31 -8t8 -31v-41q0 -23 -8 -30.5t-31 -7.5h-90v-119q0 -31 -31 -31h-102q-31 0 -31 31v119 h-299q-23 0 -31 7.5t-8 30.5zM1202 268h209v307z" />
<glyph unicode="&#xbd;" horiz-adv-x="1843" d="M203 1214v62q0 23 8 31t31 8h231q23 0 31 -8t8 -31v-563h94q23 1 31 -6.5t8 -30.5v-62q0 -23 -8 -31t-31 -8h-356q-23 0 -31 8t-8 31v62q0 23 8 30.5t31 6.5h88v469l-96 -4q-23 -2 -31 5.5t-8 30.5zM520 -27.5q-5 7.5 4 27.5l654 1356q11 22 21 28.5t34 6.5h82 q22 0 26.5 -7.5t-4.5 -27.5l-655 -1356q-11 -22 -21 -28.5t-34 -6.5h-80q-22 0 -27 7.5zM1102 530q12 113 88 171.5t199 58.5q282 0 282 -248q0 -202 -301 -379h293q31 0 31 -31v-71q0 -31 -31 -31h-485q-23 0 -31 8t-8 31v33q0 22 7 32t28 23q67 43 114.5 78.5t100 85 t80.5 104.5t28 111q0 62 -27 93.5t-96 31.5q-115 0 -131 -101q-4 -24 -13 -31t-34 -7h-59q-24 0 -31 7.5t-4 30.5z" />
<glyph unicode="&#xbe;" horiz-adv-x="1843" d="M139 745q-3 23 4.5 31t30.5 8h72q23 0 31.5 -8t11.5 -31q6 -44 33.5 -65t87.5 -21q66 0 104.5 28.5t38.5 86.5t-29.5 82t-91.5 29q-70 4 -90 4q-23 0 -31 8t-8 31v41q0 23 8 31t31 8q42 0 88 4q109 11 109 108t-127 97q-104 0 -121 -82q-6 -25 -15 -32t-32 -7h-47 q-24 0 -31.5 7.5t-5.5 31.5q9 99 86 149.5t190 50.5q125 0 193.5 -51.5t68.5 -146.5q0 -115 -131 -179q63 -12 106.5 -55.5t43.5 -120.5q0 -114 -84.5 -176.5t-226.5 -62.5q-126 0 -193 49t-74 153zM577.5 -27.5q-4.5 7.5 4.5 27.5l653 1356q11 22 21 28.5t34 6.5h82 q22 0 27 -7.5t-4 -27.5l-656 -1356q-11 -22 -21 -28.5t-34 -6.5h-80q-22 0 -26.5 7.5zM1073 188v39q0 34 23 70l280 412q13 18 25.5 24t36.5 6h98q23 0 31 -8t8 -31v-432h90q23 0 31 -8t8 -31v-41q0 -23 -8 -30.5t-31 -7.5h-90v-119q0 -31 -31 -31h-102q-31 0 -31 31v119 h-299q-23 0 -31 7.5t-8 30.5zM1202 268h209v307z" />
<glyph unicode="&#xbf;" horiz-adv-x="952" d="M72 -57q0 94 29 170t82 129t119 88t149 57v262q0 23 7.5 31t30.5 8h99q23 0 31 -8t8 -31v-348q0 -23 -7 -32t-30 -15q-134 -30 -214.5 -102.5t-80.5 -192.5q0 -47 8.5 -83t29.5 -67t61 -48t98 -17q89 0 139 45.5t59 130.5q3 23 11.5 31t31.5 8h109q23 0 30.5 -8t6.5 -31 q-9 -163 -119.5 -248.5t-292.5 -85.5q-181 0 -288 91t-107 266zM403 918q0 55 36.5 92t101.5 37q64 0 101.5 -35.5t37.5 -91.5q0 -54 -38.5 -90.5t-98.5 -36.5q-63 0 -101.5 34.5t-38.5 90.5z" />
<glyph unicode="&#xc0;" horiz-adv-x="1425" d="M0 31v100q0 31 31 31h121l409 1200q12 29 41 29h199q29 0 41 -29l413 -1200h140q30 0 30 -31v-100q0 -31 -30 -31h-514q-31 0 -31 31v100q0 31 31 31h127l-97 276h-473l-94 -276h123q31 0 31 -31v-100q0 -31 -31 -31h-436q-31 0 -31 31zM476.5 1750q3.5 7 25.5 7h143 q24 0 34 -6.5t21 -28.5l84 -188q9 -20 4.5 -27.5t-26.5 -7.5h-82q-23 0 -36 6t-26 25l-133 196q-12 17 -8.5 24zM479 592h387l-192 602z" />
<glyph unicode="&#xc1;" horiz-adv-x="1425" d="M0 31v100q0 31 31 31h121l409 1200q12 29 41 29h199q29 0 41 -29l413 -1200h140q30 0 30 -31v-100q0 -31 -30 -31h-514q-31 0 -31 31v100q0 31 31 31h127l-97 276h-473l-94 -276h123q31 0 31 -31v-100q0 -31 -31 -31h-436q-31 0 -31 31zM479 592h387l-192 602zM639 1528 l92 201q11 28 43 28h160q30 0 12 -24l-143 -209q-16 -25 -47 -25h-99q-30 0 -18 29z" />
<glyph unicode="&#xc2;" horiz-adv-x="1425" d="M0 31v100q0 31 31 31h121l409 1200q12 29 41 29h199q29 0 41 -29l413 -1200h140q30 0 30 -31v-100q0 -31 -30 -31h-514q-31 0 -31 31v100q0 31 31 31h127l-97 276h-473l-94 -276h123q31 0 31 -31v-100q0 -31 -31 -31h-436q-31 0 -31 31zM403 1524l168 219q18 24 50 24 h155q31 0 49 -24l168 -219q19 -25 -12 -25h-117q-32 0 -51 25l-119 145l-116 -145q-19 -25 -50 -25h-112q-32 0 -13 25zM479 592h387l-192 602z" />
<glyph unicode="&#xc3;" horiz-adv-x="1425" d="M0 31v100q0 31 31 31h121l409 1200q12 29 41 29h199q29 0 41 -29l413 -1200h140q30 0 30 -31v-100q0 -31 -30 -31h-514q-31 0 -31 31v100q0 31 31 31h127l-97 276h-473l-94 -276h123q31 0 31 -31v-100q0 -31 -31 -31h-436q-31 0 -31 31zM365 1565q0 57 14.5 97.5 t38.5 59.5t47 27t49 8q54 0 190 -42t183 -42q34 0 51.5 11t17.5 45q0 16 7 21t24 5h49q25 0 25 -29q0 -102 -44.5 -152t-111.5 -50t-201.5 39t-164.5 39q-62 0 -62 -46q0 -13 -4.5 -16.5t-19.5 -3.5h-64q-24 0 -24 29zM479 592h387l-192 602z" />
<glyph unicode="&#xc4;" horiz-adv-x="1425" d="M0 31v100q0 31 31 31h121l409 1200q12 29 41 29h199q29 0 41 -29l413 -1200h140q30 0 30 -31v-100q0 -31 -30 -31h-514q-31 0 -31 31v100q0 31 31 31h127l-97 276h-473l-94 -276h123q31 0 31 -31v-100q0 -31 -31 -31h-436q-31 0 -31 31zM377 1638q0 57 35 90t92 33 q60 0 93.5 -31.5t33.5 -91.5q0 -59 -36 -93t-91 -34q-58 0 -92.5 34t-34.5 93zM479 592h387l-192 602zM793 1638q0 57 35 90t92 33q60 0 93.5 -31.5t33.5 -91.5q0 -59 -36 -93t-91 -34q-58 0 -92.5 34t-34.5 93z" />
<glyph unicode="&#xc5;" horiz-adv-x="1425" d="M0 31v100q0 31 31 31h121l409 1200q12 29 41 29h199q29 0 41 -29l413 -1200h140q30 0 30 -31v-100q0 -31 -30 -31h-514q-31 0 -31 31v100q0 31 31 31h127l-97 276h-473l-94 -276h123q31 0 31 -31v-100q0 -31 -31 -31h-436q-31 0 -31 31zM479 592h387l-192 602zM500 1651 q0 87 59 145.5t146 58.5q93 0 147.5 -56.5t54.5 -137.5q0 -93 -58 -155t-149 -62q-93 0 -146.5 59t-53.5 148zM618 1651q0 -43 23.5 -72t63.5 -29t64 29t24 72q0 44 -23 71t-65 27q-43 0 -65 -26.5t-22 -71.5z" />
<glyph unicode="&#xc6;" horiz-adv-x="1800" d="M0 39v86q0 23 8 30.5t31 6.5h98l568 1065h-99q-23 -1 -31 6.5t-8 30.5v88q0 23 8 31t31 8h1073q23 0 31 -8t8 -31v-258q0 -23 -8 -31t-31 -8h-98q-23 0 -30.5 8t-6.5 31l8 133h-428v-436h306l-9 96q-1 23 6.5 31t30.5 8h98q23 0 31 -8t8 -31v-346q0 -23 -8 -31t-31 -8 h-98q-23 0 -30.5 8t-6.5 31l6 90h-303v-469h469l-8 135q-1 23 6.5 31t30.5 8h98q23 0 31 -8t8 -31v-258q0 -23 -8 -31t-31 -8h-925q-23 0 -31 8t-8 31v86q0 23 8 30.5t31 6.5h100v276h-406l-145 -276h107q23 1 30.5 -6.5t7.5 -30.5v-86q0 -23 -7.5 -31t-30.5 -8h-412 q-23 0 -31 8t-8 31zM559 592h336v635z" />
<glyph unicode="&#xc7;" horiz-adv-x="1288" d="M88 688q0 159 39 287.5t102.5 210.5t148.5 137.5t172 78.5t179 23q240 0 428 -104q27 -15 27 -41v-264q0 -31 -31 -31h-115q-31 0 -28 31l6 143q-128 86 -289 86q-109 0 -187 -40.5t-122 -114t-64 -164.5t-20 -205q0 -95 13.5 -177t45.5 -155t80.5 -124t122 -81 t166.5 -30q176 0 256 65l-8 143q-3 31 28 31h117q31 0 31 -31v-260q0 -17 -3.5 -24.5t-17.5 -14.5q-160 -78 -362 -86l-27 -43l33 -28q41 -36 59.5 -63.5t18.5 -63.5q0 -45 -57.5 -103t-139.5 -112q-26 -17 -43 6l-16 20q-18 24 2 41q48 41 66 65.5t18 49.5t-9.5 40.5 t-35.5 35.5l-19 14q-21 18 -6 43l68 98q-161 5 -282 58.5t-196 148t-112 221t-37 283.5z" />
<glyph unicode="&#xc8;" horiz-adv-x="1136" d="M82 31v100q0 31 31 31h108v1063h-108q-31 0 -31 30v105q0 31 31 31h901q30 0 30 -31v-275q0 -30 -30 -30h-115q-32 0 -29 30l9 142h-428v-436h305l-8 104q-3 31 28 31h115q31 0 31 -31v-363q0 -30 -31 -30h-115q-31 0 -28 30l6 99h-303v-471h469l-9 145q-3 31 29 31h115 q30 0 30 -31v-274q0 -17 -6.5 -24t-23.5 -7h-942q-31 0 -31 31zM376 1750q3 7 25 7h144q24 0 34 -6.5t21 -28.5l84 -188q9 -20 4.5 -27.5t-26.5 -7.5h-82q-23 0 -36 6t-26 25l-133 196q-12 17 -9 24z" />
<glyph unicode="&#xc9;" horiz-adv-x="1136" d="M82 31v100q0 31 31 31h108v1063h-108q-31 0 -31 30v105q0 31 31 31h901q30 0 30 -31v-275q0 -30 -30 -30h-115q-32 0 -29 30l9 142h-428v-436h305l-8 104q-3 31 28 31h115q31 0 31 -31v-363q0 -30 -31 -30h-115q-31 0 -28 30l6 99h-303v-471h469l-9 145q-3 31 29 31h115 q30 0 30 -31v-274q0 -17 -6.5 -24t-23.5 -7h-942q-31 0 -31 31zM555 1528l92 201q11 28 43 28h160q30 0 12 -24l-143 -209q-16 -25 -47 -25h-99q-30 0 -18 29z" />
<glyph unicode="&#xca;" horiz-adv-x="1136" d="M82 31v100q0 31 31 31h108v1063h-108q-31 0 -31 30v105q0 31 31 31h901q30 0 30 -31v-275q0 -30 -30 -30h-115q-32 0 -29 30l9 142h-428v-436h305l-8 104q-3 31 28 31h115q31 0 31 -31v-363q0 -30 -31 -30h-115q-31 0 -28 30l6 99h-303v-471h469l-9 145q-3 31 29 31h115 q30 0 30 -31v-274q0 -17 -6.5 -24t-23.5 -7h-942q-31 0 -31 31zM295 1524l168 219q18 24 49 24h156q31 0 49 -24l168 -219q19 -25 -13 -25h-116q-32 0 -51 25l-119 145l-117 -145q-19 -25 -49 -25h-113q-31 0 -12 25z" />
<glyph unicode="&#xcb;" horiz-adv-x="1136" d="M82 31v100q0 31 31 31h108v1063h-108q-31 0 -31 30v105q0 31 31 31h901q30 0 30 -31v-275q0 -30 -30 -30h-115q-32 0 -29 30l9 142h-428v-436h305l-8 104q-3 31 28 31h115q31 0 31 -31v-363q0 -30 -31 -30h-115q-31 0 -28 30l6 99h-303v-471h469l-9 145q-3 31 29 31h115 q30 0 30 -31v-274q0 -17 -6.5 -24t-23.5 -7h-942q-31 0 -31 31zM260 1638q0 57 35 90t92 33q60 0 93.5 -31.5t33.5 -91.5q0 -59 -36 -93t-91 -34q-58 0 -92.5 34t-34.5 93zM676 1638q0 57 35 90t92 33q60 0 93.5 -31.5t33.5 -91.5q0 -59 -36 -93t-91 -34q-58 0 -92.5 34 t-34.5 93z" />
<glyph unicode="&#xcc;" horiz-adv-x="671" d="M82 31v100q0 31 31 31h108v1063h-108q-31 0 -31 30v105q0 31 31 31h446q31 0 31 -31v-105q0 -30 -31 -30h-108v-1063h108q31 0 31 -31v-100q0 -31 -31 -31h-446q-31 0 -31 31zM106 1750q3 7 25 7h143q25 0 35 -6.5t21 -28.5l84 -188q9 -20 4 -27.5t-27 -7.5h-82 q-23 0 -35.5 6t-25.5 25l-133 196q-12 17 -9 24z" />
<glyph unicode="&#xcd;" horiz-adv-x="671" d="M82 31v100q0 31 31 31h108v1063h-108q-31 0 -31 30v105q0 31 31 31h446q31 0 31 -31v-105q0 -30 -31 -30h-108v-1063h108q31 0 31 -31v-100q0 -31 -31 -31h-446q-31 0 -31 31zM238 1528l92 201q11 28 43 28h159q31 0 13 -24l-144 -209q-16 -25 -47 -25h-98q-30 0 -18 29z " />
<glyph unicode="&#xce;" horiz-adv-x="671" d="M41 1524l168 219q18 24 49 24h156q31 0 49 -24l168 -219q19 -25 -13 -25h-116q-32 0 -51 25l-119 145l-117 -145q-19 -25 -49 -25h-113q-31 0 -12 25zM82 31v100q0 31 31 31h108v1063h-108q-31 0 -31 30v105q0 31 31 31h446q31 0 31 -31v-105q0 -30 -31 -30h-108v-1063 h108q31 0 31 -31v-100q0 -31 -31 -31h-446q-31 0 -31 31z" />
<glyph unicode="&#xcf;" horiz-adv-x="671" d="M0 1638q0 57 35 90t92 33q60 0 93.5 -31.5t33.5 -91.5q0 -59 -36 -93t-91 -34q-58 0 -92.5 34t-34.5 93zM82 31v100q0 31 31 31h108v1063h-108q-31 0 -31 30v105q0 31 31 31h446q31 0 31 -31v-105q0 -30 -31 -30h-108v-1063h108q31 0 31 -31v-100q0 -31 -31 -31h-446 q-31 0 -31 31zM416 1638q0 57 35 90t92 33q60 0 93.5 -31.5t33.5 -91.5q0 -59 -36 -93t-91 -34q-58 0 -92.5 34t-34.5 93z" />
<glyph unicode="&#xd0;" d="M109 31v100q0 31 30 31h107v481h-99q-23 0 -30.5 8t-7.5 31v31q0 23 7.5 31t30.5 8h99v473h-107q-30 0 -30 30v105q0 17 6.5 24t23.5 7q262 12 443 12q74 0 136.5 -5t141.5 -21.5t142 -44.5t126.5 -79.5t105.5 -120t68.5 -170.5t26.5 -229q0 -189 -55.5 -331t-158 -229 t-240.5 -130t-310 -43h-426q-30 0 -30 31zM475 160h135q226 0 349.5 147t123.5 389q0 271 -116 404t-361 133h-131v-481h307q23 0 31 -8t8 -31v-31q0 -23 -8 -31t-31 -8h-307v-483z" />
<glyph unicode="&#xd1;" horiz-adv-x="1521" d="M82 31v100q0 31 31 31h108v1063h-108q-31 0 -31 30v105q0 31 31 31h301q29 0 47 -27l682 -1036v897h-109q-30 0 -30 30v105q0 31 30 31h396q30 0 30 -31v-105q0 -30 -30 -30h-109v-1194q0 -31 -31 -31h-149q-31 0 -47 25l-695 1026v-889h170q31 0 31 -31v-100 q0 -31 -31 -31h-456q-31 0 -31 31zM412 1565q0 57 14.5 97.5t38.5 59.5t47 27t49 8q54 0 190 -42t183 -42q34 0 52 11t18 45q0 16 7 21t23 5h49q25 0 25 -29q0 -102 -44.5 -152t-111.5 -50t-201.5 39t-164.5 39q-62 0 -62 -46q0 -13 -4.5 -16.5t-19.5 -3.5h-64q-24 0 -24 29 z" />
<glyph unicode="&#xd2;" d="M88 682q0 139 28.5 255t78.5 195t112.5 137.5t136 91.5t143 48.5t138.5 15.5q52 0 101 -5.5t111.5 -24t115 -48t105 -82.5t89.5 -123t59.5 -173.5t22.5 -229.5q0 -186 -50 -333.5t-138 -240.5t-205 -141.5t-254 -48.5q-284 0 -439 180t-155 527zM334 754q0 -59 3 -111 t13 -113.5t26.5 -111t45 -97.5t67 -80.5t94 -52.5t124.5 -20q79 0 141 26t104 72t69.5 113.5t39.5 146.5t12 174q0 120 -19.5 215.5t-62 171.5t-116 117t-175.5 41q-99 0 -172 -39.5t-114 -109.5t-60.5 -155t-19.5 -187zM521.5 1750q3.5 7 25.5 7h143q24 0 34 -6.5t21 -28.5 l84 -188q9 -20 4.5 -27.5t-26.5 -7.5h-82q-23 0 -35.5 6t-25.5 25l-134 196q-12 17 -8.5 24z" />
<glyph unicode="&#xd3;" d="M88 682q0 139 28.5 255t78.5 195t112.5 137.5t136 91.5t143 48.5t138.5 15.5q52 0 101 -5.5t111.5 -24t115 -48t105 -82.5t89.5 -123t59.5 -173.5t22.5 -229.5q0 -186 -50 -333.5t-138 -240.5t-205 -141.5t-254 -48.5q-284 0 -439 180t-155 527zM334 754q0 -59 3 -111 t13 -113.5t26.5 -111t45 -97.5t67 -80.5t94 -52.5t124.5 -20q79 0 141 26t104 72t69.5 113.5t39.5 146.5t12 174q0 120 -19.5 215.5t-62 171.5t-116 117t-175.5 41q-99 0 -172 -39.5t-114 -109.5t-60.5 -155t-19.5 -187zM645 1528l92 201q11 28 43 28h160q30 0 12 -24 l-143 -209q-16 -25 -47 -25h-98q-31 0 -19 29z" />
<glyph unicode="&#xd4;" d="M88 682q0 139 28.5 255t78.5 195t112.5 137.5t136 91.5t143 48.5t138.5 15.5q52 0 101 -5.5t111.5 -24t115 -48t105 -82.5t89.5 -123t59.5 -173.5t22.5 -229.5q0 -186 -50 -333.5t-138 -240.5t-205 -141.5t-254 -48.5q-284 0 -439 180t-155 527zM334 754q0 -59 3 -111 t13 -113.5t26.5 -111t45 -97.5t67 -80.5t94 -52.5t124.5 -20q79 0 141 26t104 72t69.5 113.5t39.5 146.5t12 174q0 120 -19.5 215.5t-62 171.5t-116 117t-175.5 41q-99 0 -172 -39.5t-114 -109.5t-60.5 -155t-19.5 -187zM434 1524l168 219q18 24 49 24h156q31 0 49 -24 l168 -219q19 -25 -12 -25h-117q-32 0 -51 25l-119 145l-117 -145q-19 -25 -49 -25h-113q-31 0 -12 25z" />
<glyph unicode="&#xd5;" d="M88 682q0 139 28.5 255t78.5 195t112.5 137.5t136 91.5t143 48.5t138.5 15.5q52 0 101 -5.5t111.5 -24t115 -48t105 -82.5t89.5 -123t59.5 -173.5t22.5 -229.5q0 -186 -50 -333.5t-138 -240.5t-205 -141.5t-254 -48.5q-284 0 -439 180t-155 527zM334 754q0 -59 3 -111 t13 -113.5t26.5 -111t45 -97.5t67 -80.5t94 -52.5t124.5 -20q79 0 141 26t104 72t69.5 113.5t39.5 146.5t12 174q0 120 -19.5 215.5t-62 171.5t-116 117t-175.5 41q-99 0 -172 -39.5t-114 -109.5t-60.5 -155t-19.5 -187zM360 1565q0 57 14.5 97.5t39 59.5t47.5 27t49 8 q54 0 190 -42t183 -42q34 0 51.5 11t17.5 45q0 16 7 21t24 5h49q25 0 25 -29q0 -102 -44.5 -152t-111.5 -50t-201.5 39t-164.5 39q-62 0 -62 -46q0 -13 -4.5 -16.5t-19.5 -3.5h-64q-25 0 -25 29z" />
<glyph unicode="&#xd6;" d="M88 682q0 139 28.5 255t78.5 195t112.5 137.5t136 91.5t143 48.5t138.5 15.5q52 0 101 -5.5t111.5 -24t115 -48t105 -82.5t89.5 -123t59.5 -173.5t22.5 -229.5q0 -186 -50 -333.5t-138 -240.5t-205 -141.5t-254 -48.5q-284 0 -439 180t-155 527zM334 754q0 -59 3 -111 t13 -113.5t26.5 -111t45 -97.5t67 -80.5t94 -52.5t124.5 -20q79 0 141 26t104 72t69.5 113.5t39.5 146.5t12 174q0 120 -19.5 215.5t-62 171.5t-116 117t-175.5 41q-99 0 -172 -39.5t-114 -109.5t-60.5 -155t-19.5 -187zM373 1638q0 57 35 90t92 33q60 0 93.5 -31.5 t33.5 -91.5q0 -59 -36 -93t-91 -34q-58 0 -92.5 34t-34.5 93zM788 1638q0 57 35 90t92 33q60 0 93.5 -31.5t33.5 -91.5q0 -59 -36 -93t-91 -34q-58 0 -92.5 34t-34.5 93z" />
<glyph unicode="&#xd7;" horiz-adv-x="1085" d="M165 319.5q0 11.5 15 26.5l252 250l-252 252q-15 15 -15 26.5t15 26.5l53 53q15 15 27 15t27 -15l250 -252l256 256q15 15 26.5 15t26.5 -15l41 -40q15 -15 15 -27t-15 -27l-256 -256l274 -272q15 -15 15 -26.5t-15 -26.5l-53 -54q-15 -15 -26.5 -15t-26.5 15l-273 273 l-252 -250q-15 -15 -26.5 -15t-26.5 15l-41 41q-15 15 -15 26.5z" />
<glyph unicode="&#xd8;" d="M88 682q0 139 28.5 255t78.5 195t112.5 137.5t136 91.5t143 48.5t138.5 15.5q85 0 164 -16l43 113q8 23 17 30t34 7h64q23 0 28.5 -7.5t-2.5 -29.5l-57 -156q313 -149 313 -627q0 -186 -50 -333.5t-138 -240.5t-205 -141.5t-254 -48.5q-92 0 -172 21l-49 -133 q-8 -23 -17 -30t-34 -7h-62q-23 0 -28.5 7.5t2.5 29.5l65 176q-299 155 -299 643zM334 754q0 -356 133 -494l356 967q-55 18 -123 18q-99 0 -172 -39.5t-114 -109.5t-60.5 -155t-19.5 -187zM582 188q58 -20 125 -20q79 0 141 26t104 72t69.5 113.5t39.5 146.5t12 174 q0 320 -135 455z" />
<glyph unicode="&#xd9;" horiz-adv-x="1460" d="M51 1255v105q0 31 31 31h446q31 0 31 -31v-105q0 -30 -31 -30h-108v-643q0 -82 5 -137.5t24 -113.5t52.5 -92.5t92.5 -56.5t143 -22q95 0 161.5 28.5t104 85t54 129.5t16.5 172v650h-108q-31 0 -31 30v105q0 31 31 31h413q31 0 31 -31v-105q0 -30 -31 -30h-108v-693 q0 -88 -14 -164t-51.5 -150.5t-96.5 -126.5t-155.5 -84t-221.5 -32q-156 0 -263 35t-167 106t-85.5 166t-25.5 228v715h-108q-31 0 -31 30zM534 1750q3 7 25 7h143q25 0 35 -6.5t21 -28.5l84 -188q9 -20 4 -27.5t-27 -7.5h-82q-23 0 -35.5 6t-25.5 25l-133 196q-12 17 -9 24 z" />
<glyph unicode="&#xda;" horiz-adv-x="1460" d="M51 1255v105q0 31 31 31h446q31 0 31 -31v-105q0 -30 -31 -30h-108v-643q0 -82 5 -137.5t24 -113.5t52.5 -92.5t92.5 -56.5t143 -22q95 0 161.5 28.5t104 85t54 129.5t16.5 172v650h-108q-31 0 -31 30v105q0 31 31 31h413q31 0 31 -31v-105q0 -30 -31 -30h-108v-693 q0 -88 -14 -164t-51.5 -150.5t-96.5 -126.5t-155.5 -84t-221.5 -32q-156 0 -263 35t-167 106t-85.5 166t-25.5 228v715h-108q-31 0 -31 30zM690 1528l92 201q11 28 43 28h160q30 0 12 -24l-143 -209q-16 -25 -47 -25h-98q-31 0 -19 29z" />
<glyph unicode="&#xdb;" horiz-adv-x="1460" d="M51 1255v105q0 31 31 31h446q31 0 31 -31v-105q0 -30 -31 -30h-108v-643q0 -82 5 -137.5t24 -113.5t52.5 -92.5t92.5 -56.5t143 -22q95 0 161.5 28.5t104 85t54 129.5t16.5 172v650h-108q-31 0 -31 30v105q0 31 31 31h413q31 0 31 -31v-105q0 -30 -31 -30h-108v-693 q0 -88 -14 -164t-51.5 -150.5t-96.5 -126.5t-155.5 -84t-221.5 -32q-156 0 -263 35t-167 106t-85.5 166t-25.5 228v715h-108q-31 0 -31 30zM455 1524l168 219q18 24 49 24h155q32 0 50 -24l167 -219q19 -25 -12 -25h-117q-32 0 -51 25l-119 145l-116 -145q-19 -25 -49 -25 h-113q-31 0 -12 25z" />
<glyph unicode="&#xdc;" horiz-adv-x="1460" d="M51 1255v105q0 31 31 31h446q31 0 31 -31v-105q0 -30 -31 -30h-108v-643q0 -82 5 -137.5t24 -113.5t52.5 -92.5t92.5 -56.5t143 -22q95 0 161.5 28.5t104 85t54 129.5t16.5 172v650h-108q-31 0 -31 30v105q0 31 31 31h413q31 0 31 -31v-105q0 -30 -31 -30h-108v-693 q0 -88 -14 -164t-51.5 -150.5t-96.5 -126.5t-155.5 -84t-221.5 -32q-156 0 -263 35t-167 106t-85.5 166t-25.5 228v715h-108q-31 0 -31 30zM414 1638q0 57 35 90t92 33q60 0 93.5 -31.5t33.5 -91.5q0 -59 -36 -93t-91 -34q-58 0 -92.5 34t-34.5 93zM829 1638q0 57 35 90 t92 33q60 0 93.5 -31.5t33.5 -91.5q0 -59 -36 -93t-91 -34q-58 0 -92.5 34t-34.5 93z" />
<glyph unicode="&#xdd;" horiz-adv-x="1359" d="M20 1255v105q0 31 31 31h520q31 0 31 -31v-105q0 -30 -31 -30h-145l295 -504l293 504h-137q-31 0 -31 30v105q0 31 31 31h432q30 0 30 -31v-105q0 -30 -30 -30h-109l-399 -672v-393h108q31 0 31 -31v-98q0 -31 -31 -31h-446q-31 0 -31 31v98q0 31 31 31h108v366l-413 699 h-107q-31 0 -31 30zM643 1528l92 201q11 28 43 28h160q30 0 12 -24l-143 -209q-16 -25 -47 -25h-98q-31 0 -19 29z" />
<glyph unicode="&#xde;" horiz-adv-x="1157" d="M82 39v86q0 23 8 30.5t31 6.5h98v1065h-98q-23 -1 -31 6.5t-8 30.5v88q0 23 8 31t31 8h424q23 0 31 -8t8 -31v-88q0 -23 -8 -30.5t-31 -6.5h-96v-64h98q538 0 538 -397q0 -212 -139 -328t-366 -116q-78 0 -131 6v-166h161q23 1 31 -6.5t8 -30.5v-86q0 -23 -8 -31t-31 -8 h-489q-23 0 -31 8t-8 31zM449 485q16 -2 63 -2q170 0 254 61t84 206q0 71 -22.5 120t-65.5 74t-93 35t-118 10h-102v-504z" />
<glyph unicode="&#xdf;" horiz-adv-x="1302" d="M35 39v86q0 23 8 30.5t31 6.5h119v977q0 71 12 129.5t43.5 113.5t81.5 92t132 59.5t189 22.5q92 0 166.5 -16t133.5 -49.5t91.5 -90.5t32.5 -134q0 -58 -26.5 -115.5t-64.5 -104t-76 -89.5t-64.5 -89t-26.5 -88t24.5 -75t64 -57t87 -46.5t94.5 -50.5t86.5 -62.5t64 -88 t24.5 -121.5q0 -140 -99.5 -222t-267.5 -82q-124 0 -233 37q-23 7 -28 16.5t1 32.5l20 78q6 22 14.5 26.5t30.5 -3.5q104 -45 193 -45q162 0 162 129q0 43 -24.5 76.5t-64 56t-87 43t-95.5 45t-87.5 54.5t-64 78.5t-24.5 111.5q0 67 26.5 129.5t64 110.5t75 93.5t64 96.5 t26.5 102q0 152 -217 152q-122 0 -173.5 -62.5t-51.5 -179.5v-991h84q23 1 31 -6.5t8 -30.5v-86q0 -23 -8 -31t-31 -8h-432q-23 0 -31 8t-8 31z" />
<glyph unicode="&#xe0;" horiz-adv-x="1073" d="M72 264q0 69 22.5 123.5t55 89.5t88 60.5t100.5 38t116.5 20.5t111 9.5t106.5 2.5v72q0 34 -3 59t-13.5 53t-29 45.5t-52 29.5t-80.5 12q-90 0 -130.5 -34t-54.5 -97q-7 -31 -30 -31h-132q-31 0 -28 31q4 62 27 111.5t60.5 82t89 54t108.5 31t122 9.5q85 0 150.5 -18 t106 -48t65.5 -74t35 -91.5t10 -104.5v-538h88q31 0 31 -31v-100q0 -31 -31 -31h-242q-27 0 -30 31l-15 94q-111 -150 -319 -150q-62 0 -114 15t-95.5 47.5t-68.5 90.5t-25 136zM289 285q0 -142 162 -142q106 0 165.5 50.5t59.5 115.5v158q-41 0 -58 -0.5t-57 -2.5t-60 -5 t-54 -9.5t-52 -15t-41.5 -22.5t-35.5 -31.5t-20.5 -42t-8.5 -53.5zM311.5 1491.5q4.5 7.5 26.5 7.5h147q25 0 34 -7t17 -30l89 -237q7 -22 1.5 -29.5t-28.5 -7.5h-90q-25 0 -36.5 6.5t-21.5 28.5l-133 241q-10 20 -5.5 27.5z" />
<glyph unicode="&#xe1;" horiz-adv-x="1073" d="M72 264q0 69 22.5 123.5t55 89.5t88 60.5t100.5 38t116.5 20.5t111 9.5t106.5 2.5v72q0 34 -3 59t-13.5 53t-29 45.5t-52 29.5t-80.5 12q-90 0 -130.5 -34t-54.5 -97q-7 -31 -30 -31h-132q-31 0 -28 31q4 62 27 111.5t60.5 82t89 54t108.5 31t122 9.5q85 0 150.5 -18 t106 -48t65.5 -74t35 -91.5t10 -104.5v-538h88q31 0 31 -31v-100q0 -31 -31 -31h-242q-27 0 -30 31l-15 94q-111 -150 -319 -150q-62 0 -114 15t-95.5 47.5t-68.5 90.5t-25 136zM289 285q0 -142 162 -142q106 0 165.5 50.5t59.5 115.5v158q-41 0 -58 -0.5t-57 -2.5t-60 -5 t-54 -9.5t-52 -15t-41.5 -22.5t-35.5 -31.5t-20.5 -42t-8.5 -53.5zM442.5 1195.5q-5.5 7.5 1.5 29.5l86 237q7 23 17 30t35 7h147q22 0 26.5 -7.5t-5.5 -27.5l-134 -241q-10 -22 -21 -28.5t-36 -6.5h-88q-23 0 -28.5 7.5z" />
<glyph unicode="&#xe2;" horiz-adv-x="1073" d="M72 264q0 69 22.5 123.5t55 89.5t88 60.5t100.5 38t116.5 20.5t111 9.5t106.5 2.5v72q0 34 -3 59t-13.5 53t-29 45.5t-52 29.5t-80.5 12q-90 0 -130.5 -34t-54.5 -97q-7 -31 -30 -31h-132q-31 0 -28 31q4 62 27 111.5t60.5 82t89 54t108.5 31t122 9.5q85 0 150.5 -18 t106 -48t65.5 -74t35 -91.5t10 -104.5v-538h88q31 0 31 -31v-100q0 -31 -31 -31h-242q-27 0 -30 31l-15 94q-111 -150 -319 -150q-62 0 -114 15t-95.5 47.5t-68.5 90.5t-25 136zM227 1214l172 277q18 27 47 27h156q29 0 47 -27l172 -277q17 -26 -14 -26h-121q-32 0 -47 24 l-119 174l-111 -172q-17 -26 -47 -26h-121q-31 0 -14 26zM289 285q0 -142 162 -142q106 0 165.5 50.5t59.5 115.5v158q-41 0 -58 -0.5t-57 -2.5t-60 -5t-54 -9.5t-52 -15t-41.5 -22.5t-35.5 -31.5t-20.5 -42t-8.5 -53.5z" />
<glyph unicode="&#xe3;" horiz-adv-x="1073" d="M72 264q0 69 22.5 123.5t55 89.5t88 60.5t100.5 38t116.5 20.5t111 9.5t106.5 2.5v72q0 34 -3 59t-13.5 53t-29 45.5t-52 29.5t-80.5 12q-90 0 -130.5 -34t-54.5 -97q-7 -31 -30 -31h-132q-31 0 -28 31q4 62 27 111.5t60.5 82t89 54t108.5 31t122 9.5q85 0 150.5 -18 t106 -48t65.5 -74t35 -91.5t10 -104.5v-538h88q31 0 31 -31v-100q0 -31 -31 -31h-242q-27 0 -30 31l-15 94q-111 -150 -319 -150q-62 0 -114 15t-95.5 47.5t-68.5 90.5t-25 136zM164 1266q0 57 14.5 97.5t38.5 59.5t47 27t49 8q54 0 190 -42t183 -42q34 0 52 11t18 45 q0 16 7 21t23 5h50q24 0 24 -29q0 -102 -44 -152t-111 -50t-202 39t-165 39q-62 0 -62 -46q0 -13 -4.5 -16.5t-19.5 -3.5h-64q-24 0 -24 29zM289 285q0 -142 162 -142q106 0 165.5 50.5t59.5 115.5v158q-41 0 -58 -0.5t-57 -2.5t-60 -5t-54 -9.5t-52 -15t-41.5 -22.5 t-35.5 -31.5t-20.5 -42t-8.5 -53.5z" />
<glyph unicode="&#xe4;" horiz-adv-x="1073" d="M72 264q0 69 22.5 123.5t55 89.5t88 60.5t100.5 38t116.5 20.5t111 9.5t106.5 2.5v72q0 34 -3 59t-13.5 53t-29 45.5t-52 29.5t-80.5 12q-90 0 -130.5 -34t-54.5 -97q-7 -31 -30 -31h-132q-31 0 -28 31q4 62 27 111.5t60.5 82t89 54t108.5 31t122 9.5q85 0 150.5 -18 t106 -48t65.5 -74t35 -91.5t10 -104.5v-538h88q31 0 31 -31v-100q0 -31 -31 -31h-242q-27 0 -30 31l-15 94q-111 -150 -319 -150q-62 0 -114 15t-95.5 47.5t-68.5 90.5t-25 136zM168 1346q0 57 35 89.5t92 32.5q61 0 94 -31.5t33 -90.5t-36 -93t-91 -34q-58 0 -92.5 34 t-34.5 93zM289 285q0 -142 162 -142q106 0 165.5 50.5t59.5 115.5v158q-41 0 -58 -0.5t-57 -2.5t-60 -5t-54 -9.5t-52 -15t-41.5 -22.5t-35.5 -31.5t-20.5 -42t-8.5 -53.5zM584 1346q0 57 35 89.5t92 32.5q61 0 94 -31.5t33 -90.5t-36 -93t-91 -34q-58 0 -92.5 34t-34.5 93z " />
<glyph unicode="&#xe5;" horiz-adv-x="1073" d="M72 264q0 69 22.5 123.5t55 89.5t88 60.5t100.5 38t116.5 20.5t111 9.5t106.5 2.5v72q0 34 -3 59t-13.5 53t-29 45.5t-52 29.5t-80.5 12q-90 0 -130.5 -34t-54.5 -97q-7 -31 -30 -31h-132q-31 0 -28 31q4 62 27 111.5t60.5 82t89 54t108.5 31t122 9.5q85 0 150.5 -18 t106 -48t65.5 -74t35 -91.5t10 -104.5v-538h88q31 0 31 -31v-100q0 -31 -31 -31h-242q-27 0 -30 31l-15 94q-111 -150 -319 -150q-62 0 -114 15t-95.5 47.5t-68.5 90.5t-25 136zM289 285q0 -142 162 -142q106 0 165.5 50.5t59.5 115.5v158q-41 0 -58 -0.5t-57 -2.5t-60 -5 t-54 -9.5t-52 -15t-41.5 -22.5t-35.5 -31.5t-20.5 -42t-8.5 -53.5zM324 1364q0 87 58.5 146t145.5 59q93 0 148 -57t55 -138q0 -93 -58 -155t-149 -62q-93 0 -146.5 59t-53.5 148zM442 1364q0 -43 23 -71.5t63 -28.5t64 28.5t24 71.5q0 44 -23 71t-65 27q-43 0 -64.5 -26.5 t-21.5 -71.5z" />
<glyph unicode="&#xe6;" horiz-adv-x="1593" d="M72 279q0 71 22.5 127t55 92t88 62.5t100.5 39.5t116.5 21t111 9.5t106.5 2.5v55q0 99 -40.5 145t-133.5 46q-168 0 -189 -123q-4 -25 -13 -32t-34 -7h-106q-23 0 -30 7.5t-5 31.5q26 280 395 280q229 0 297 -143q115 143 328 143q87 0 155 -24.5t112 -66t72.5 -100.5 t40 -123t11.5 -138q0 -41 -2 -64q-2 -24 -9.5 -31.5t-31.5 -7.5h-598q0 -334 295 -334q67 0 113 12t108 40q22 9 31 5t18 -26l31 -80q9 -22 5 -32t-26 -21q-148 -70 -327 -70q-236 0 -353 129q-181 -129 -389 -129q-70 0 -126.5 16t-102 50.5t-71 95t-25.5 142.5zM289 297 q0 -71 42.5 -112.5t135.5 -41.5q72 0 144 27.5t108 60.5q-55 95 -55 250q-41 -1 -64 -2t-63 -4t-64.5 -8.5t-57 -14t-52 -22t-38.5 -32t-27.5 -44t-8.5 -57.5zM891 633h416q0 38 -3.5 67.5t-15.5 61.5t-31.5 53t-55 35t-83.5 14q-51 0 -92 -17t-65 -42t-40 -58t-22.5 -60.5 t-7.5 -53.5z" />
<glyph unicode="&#xe7;" horiz-adv-x="958" d="M72 502q0 113 29 208t86.5 169t152 115.5t217.5 41.5q95 0 166.5 -28.5t113 -78.5t61.5 -112.5t20 -136.5q0 -17 -8.5 -22t-26.5 -5h-123q-17 0 -25.5 6t-9.5 25q-10 180 -182 180q-123 0 -180.5 -85t-57.5 -259q0 -373 289 -373q42 0 83 9t66.5 19t65.5 28q31 12 43 -19 l37 -90q11 -27 -17 -43q-106 -66 -272 -74l-27 -43l33 -28q41 -36 59.5 -63.5t18.5 -63.5q0 -45 -57.5 -103t-139.5 -112q-26 -17 -43 6l-16 20q-18 24 2 41q48 41 66 65.5t18 49.5t-9.5 40.5t-35.5 35.5l-18 14q-22 19 -7 43l68 98q-225 13 -332.5 152.5t-107.5 372.5z" />
<glyph unicode="&#xe8;" horiz-adv-x="1001" d="M72 508q0 104 28.5 197t84.5 168t147.5 119t208.5 44q90 0 161 -29t115 -75t72.5 -110t39.5 -128t11 -135q0 -45 -2 -70q-2 -20 -8.5 -26t-28.5 -6h-602q5 -71 19.5 -123t46 -96.5t87.5 -67.5t136 -23q110 0 231 54q29 14 41 -17l39 -94q10 -25 -18 -41 q-59 -32 -148.5 -53t-189.5 -21q-124 0 -216.5 39t-147 111.5t-81 167.5t-26.5 215zM299 608h426q4 256 -201 256q-63 0 -109 -24t-69.5 -64t-34 -81t-12.5 -87zM334.5 1491.5q4.5 7.5 26.5 7.5h147q25 0 34 -7t17 -30l89 -237q7 -22 1.5 -29.5t-28.5 -7.5h-90 q-25 0 -36.5 6.5t-21.5 28.5l-133 241q-10 20 -5.5 27.5z" />
<glyph unicode="&#xe9;" horiz-adv-x="1001" d="M72 508q0 104 28.5 197t84.5 168t147.5 119t208.5 44q90 0 161 -29t115 -75t72.5 -110t39.5 -128t11 -135q0 -45 -2 -70q-2 -20 -8.5 -26t-28.5 -6h-602q5 -71 19.5 -123t46 -96.5t87.5 -67.5t136 -23q110 0 231 54q29 14 41 -17l39 -94q10 -25 -18 -41 q-59 -32 -148.5 -53t-189.5 -21q-124 0 -216.5 39t-147 111.5t-81 167.5t-26.5 215zM299 608h426q4 256 -201 256q-63 0 -109 -24t-69.5 -64t-34 -81t-12.5 -87zM477.5 1195.5q-5.5 7.5 1.5 29.5l86 237q8 23 17 30t34 7h148q22 0 26 -7.5t-6 -27.5l-133 -241 q-10 -22 -21 -28.5t-36 -6.5h-88q-23 0 -28.5 7.5z" />
<glyph unicode="&#xea;" horiz-adv-x="1001" d="M72 508q0 104 28.5 197t84.5 168t147.5 119t208.5 44q90 0 161 -29t115 -75t72.5 -110t39.5 -128t11 -135q0 -45 -2 -70q-2 -20 -8.5 -26t-28.5 -6h-602q5 -71 19.5 -123t46 -96.5t87.5 -67.5t136 -23q110 0 231 54q29 14 41 -17l39 -94q10 -25 -18 -41 q-59 -32 -148.5 -53t-189.5 -21q-124 0 -216.5 39t-147 111.5t-81 167.5t-26.5 215zM237 1214l172 277q18 27 47 27h156q29 0 47 -27l172 -277q17 -26 -14 -26h-121q-32 0 -47 24l-119 174l-111 -172q-17 -26 -47 -26h-121q-31 0 -14 26zM299 608h426q4 256 -201 256 q-63 0 -109 -24t-69.5 -64t-34 -81t-12.5 -87z" />
<glyph unicode="&#xeb;" horiz-adv-x="1001" d="M72 508q0 104 28.5 197t84.5 168t147.5 119t208.5 44q90 0 161 -29t115 -75t72.5 -110t39.5 -128t11 -135q0 -45 -2 -70q-2 -20 -8.5 -26t-28.5 -6h-602q5 -71 19.5 -123t46 -96.5t87.5 -67.5t136 -23q110 0 231 54q29 14 41 -17l39 -94q10 -25 -18 -41 q-59 -32 -148.5 -53t-189.5 -21q-124 0 -216.5 39t-147 111.5t-81 167.5t-26.5 215zM209 1346q0 57 35 89.5t92 32.5q61 0 94 -31.5t33 -90.5t-36 -93t-91 -34q-58 0 -92.5 34t-34.5 93zM299 608h426q4 256 -201 256q-63 0 -109 -24t-69.5 -64t-34 -81t-12.5 -87zM625 1346 q0 57 35 89.5t92 32.5q61 0 94 -31.5t33 -90.5t-36 -93t-91 -34q-58 0 -92.5 34t-34.5 93z" />
<glyph unicode="&#xec;" horiz-adv-x="602" d="M33 31v100q0 31 30 31h130v684h-111q-31 0 -31 31v106q0 31 31 31h309q31 0 31 -31v-821h129q31 0 31 -31v-100q0 -31 -31 -31h-488q-30 0 -30 31zM76.5 1491.5q4.5 7.5 26.5 7.5h147q25 0 34 -7t17 -30l89 -237q7 -22 1.5 -29.5t-28.5 -7.5h-90q-25 0 -36.5 6.5 t-21.5 28.5l-133 241q-10 20 -5.5 27.5z" />
<glyph unicode="&#xed;" horiz-adv-x="602" d="M33 31v100q0 31 30 31h130v684h-111q-31 0 -31 31v106q0 31 31 31h309q31 0 31 -31v-821h129q31 0 31 -31v-100q0 -31 -31 -31h-488q-30 0 -30 31zM204.5 1195.5q-5.5 7.5 2.5 29.5l86 237q8 23 17 30t34 7h148q22 0 26 -7.5t-6 -27.5l-133 -241q-10 -22 -21 -28.5 t-36 -6.5h-89q-23 0 -28.5 7.5z" />
<glyph unicode="&#xee;" horiz-adv-x="602" d="M8 1214l172 277q18 27 47 27h156q29 0 47 -27l172 -277q17 -26 -14 -26h-121q-32 0 -47 24l-119 174l-111 -172q-17 -26 -47 -26h-121q-31 0 -14 26zM33 31v100q0 31 30 31h130v684h-111q-31 0 -31 31v106q0 31 31 31h309q31 0 31 -31v-821h129q31 0 31 -31v-100 q0 -31 -31 -31h-488q-30 0 -30 31z" />
<glyph unicode="&#xef;" horiz-adv-x="602" d="M-80 1346q0 57 35 89.5t92 32.5q61 0 94 -31.5t33 -90.5t-36 -93t-91 -34q-58 0 -92.5 34t-34.5 93zM33 31q0 -31 30 -31h488q31 0 31 31v100q0 31 -31 31h-129v821q0 31 -31 31h-309q-31 0 -31 -31v-106q0 -31 31 -31h111v-684h-130q-30 0 -30 -31v-100zM336 1346 q0 57 35 89.5t92 32.5q61 0 94 -31.5t33 -90.5t-36 -93t-91 -34q-58 0 -92.5 34t-34.5 93z" />
<glyph unicode="&#xf0;" horiz-adv-x="1081" d="M72 442q0 121 44.5 219t138.5 160t222 62q104 0 185.5 -42.5t130.5 -111.5q-3 260 -62 434l-190 -88q-22 -9 -31 -5.5t-18 24.5l-13 28q-9 22 -5 32.5t26 19.5l186 88q-87 118 -227 118q-84 0 -126.5 -37t-49.5 -118q-3 -23 -11.5 -31t-31.5 -8h-95q-23 0 -30.5 8 t-5.5 31q8 305 358 305q255 0 385 -193l182 86q22 9 31 6t18 -24l15 -33q8 -19 3.5 -28.5t-24.5 -18.5l-176 -82q55 -118 80 -260.5t25 -372.5q0 -319 -116 -477t-364 -158q-217 0 -335.5 121t-118.5 346zM289 444q0 -136 59 -218.5t184 -82.5q58 0 102.5 17t71.5 48.5 t44 67t24 83.5t9 86t1 85q-33 69 -107 122t-155 53q-117 0 -175 -69.5t-58 -191.5z" />
<glyph unicode="&#xf1;" horiz-adv-x="1236" d="M51 874v109q0 31 31 31h278q27 0 33 -31l19 -119q114 172 327 172q156 0 237 -88t81 -260v-526h119q30 0 30 -31v-100q0 -31 -30 -31h-447q-31 0 -31 31v100q0 31 31 31h98v424q0 50 -2.5 82.5t-12.5 67t-29 54t-52 32t-80 12.5q-94 0 -161.5 -62t-67.5 -139v-471h127 q31 0 31 -31v-100q0 -31 -31 -31h-465q-31 0 -31 31v100q0 31 31 31h109v684h-111q-18 0 -24.5 5.5t-6.5 22.5zM270 1266q0 57 14.5 97.5t38.5 59.5t47 27t49 8q54 0 190 -42t183 -42q34 0 52 11t18 45q0 16 7 21t23 5h50q24 0 24 -29q0 -102 -44 -152t-111 -50t-202 39 t-165 39q-62 0 -62 -46q0 -13 -4.5 -16.5t-19.5 -3.5h-64q-24 0 -24 29z" />
<glyph unicode="&#xf2;" horiz-adv-x="1089" d="M72 492q0 124 32 222t81.5 157t116 97.5t129 53t126.5 14.5q40 0 76.5 -3.5t84.5 -16.5t88 -34t80.5 -59.5t68.5 -89.5t45.5 -127.5t17.5 -170.5q0 -140 -38.5 -248.5t-106.5 -175.5t-156.5 -101.5t-192.5 -34.5q-214 0 -333 130.5t-119 386.5zM303 537q0 -394 240 -394 q123 0 179 90.5t56 272.5q0 179 -56 270.5t-183 91.5q-236 0 -236 -331zM354.5 1491.5q4.5 7.5 26.5 7.5h147q25 0 34 -7t17 -30l89 -237q7 -22 1.5 -29.5t-28.5 -7.5h-90q-25 0 -36.5 6.5t-21.5 28.5l-133 241q-10 20 -5.5 27.5z" />
<glyph unicode="&#xf3;" horiz-adv-x="1089" d="M72 492q0 124 32 222t81.5 157t116 97.5t129 53t126.5 14.5q40 0 76.5 -3.5t84.5 -16.5t88 -34t80.5 -59.5t68.5 -89.5t45.5 -127.5t17.5 -170.5q0 -140 -38.5 -248.5t-106.5 -175.5t-156.5 -101.5t-192.5 -34.5q-214 0 -333 130.5t-119 386.5zM303 537q0 -394 240 -394 q123 0 179 90.5t56 272.5q0 179 -56 270.5t-183 91.5q-236 0 -236 -331zM489.5 1195.5q-5.5 7.5 2.5 29.5l86 237q8 23 17 30t34 7h147q22 0 26.5 -7.5t-5.5 -27.5l-133 -241q-10 -22 -21.5 -28.5t-36.5 -6.5h-88q-23 0 -28.5 7.5z" />
<glyph unicode="&#xf4;" horiz-adv-x="1089" d="M72 492q0 124 32 222t81.5 157t116 97.5t129 53t126.5 14.5q40 0 76.5 -3.5t84.5 -16.5t88 -34t80.5 -59.5t68.5 -89.5t45.5 -127.5t17.5 -170.5q0 -140 -38.5 -248.5t-106.5 -175.5t-156.5 -101.5t-192.5 -34.5q-214 0 -333 130.5t-119 386.5zM252 1214l172 277 q18 27 47 27h156q29 0 47 -27l172 -277q17 -26 -14 -26h-121q-32 0 -47 24l-119 174l-111 -172q-17 -26 -47 -26h-121q-31 0 -14 26zM303 537q0 -394 240 -394q123 0 179 90.5t56 272.5q0 179 -56 270.5t-183 91.5q-236 0 -236 -331z" />
<glyph unicode="&#xf5;" horiz-adv-x="1089" d="M72 492q0 124 32 222t81.5 157t116 97.5t129 53t126.5 14.5q40 0 76.5 -3.5t84.5 -16.5t88 -34t80.5 -59.5t68.5 -89.5t45.5 -127.5t17.5 -170.5q0 -140 -38.5 -248.5t-106.5 -175.5t-156.5 -101.5t-192.5 -34.5q-214 0 -333 130.5t-119 386.5zM197 1266q0 57 14.5 97.5 t38.5 59.5t47 27t49 8q54 0 190 -42t183 -42q34 0 51.5 11t17.5 45q0 16 7 21t24 5h49q25 0 25 -29q0 -102 -44.5 -152t-111.5 -50t-201.5 39t-164.5 39q-62 0 -62 -46q0 -13 -4.5 -16.5t-19.5 -3.5h-64q-24 0 -24 29zM303 537q0 -394 240 -394q123 0 179 90.5t56 272.5 q0 179 -56 270.5t-183 91.5q-236 0 -236 -331z" />
<glyph unicode="&#xf6;" horiz-adv-x="1089" d="M72 492q0 124 32 222t81.5 157t116 97.5t129 53t126.5 14.5q40 0 76.5 -3.5t84.5 -16.5t88 -34t80.5 -59.5t68.5 -89.5t45.5 -127.5t17.5 -170.5q0 -140 -38.5 -248.5t-106.5 -175.5t-156.5 -101.5t-192.5 -34.5q-214 0 -333 130.5t-119 386.5zM225 1346q0 57 35 89.5 t92 32.5q61 0 94 -31.5t33 -90.5t-36 -93t-91 -34q-58 0 -92.5 34t-34.5 93zM303 537q0 -394 240 -394q123 0 179 90.5t56 272.5q0 179 -56 270.5t-183 91.5q-236 0 -236 -331zM641 1346q0 57 35 89.5t92 32.5q61 0 94 -31.5t33 -90.5t-36 -93t-91 -34q-58 0 -92.5 34 t-34.5 93z" />
<glyph unicode="&#xf7;" horiz-adv-x="1085" d="M72 582v55q0 23 8 31t31 8h864q23 0 31 -8t8 -31v-55q0 -23 -8 -31t-31 -8h-864q-23 0 -31 8t-8 31zM387 309q0 60 43 101t109 41q70 0 112.5 -39t42.5 -101q0 -61 -40.5 -102t-112.5 -41t-113 39.5t-41 101.5zM387 936q0 59 43 100t109 41q70 0 112.5 -38.5t42.5 -100.5 q0 -61 -40.5 -102t-112.5 -41t-113 39.5t-41 101.5z" />
<glyph unicode="&#xf8;" horiz-adv-x="1089" d="M72 492q0 124 32 222t81.5 157t116 97.5t129 53t126.5 14.5q81 0 141 -14l66 152q7 23 16.5 29.5t34.5 6.5h49q23 0 28.5 -7t-1.5 -29l-84 -195q211 -114 211 -444q0 -140 -38.5 -248.5t-106.5 -175.5t-156.5 -101.5t-192.5 -34.5q-76 0 -147 19l-70 -164q-8 -23 -17 -30 t-34 -7h-47q-23 0 -28.5 7.5t1.5 29.5l90 209q-200 123 -200 453zM303 537q0 -198 57 -293l265 610q-44 14 -86 14q-236 0 -236 -331zM451 162q43 -19 92 -19q123 0 179 90.5t56 272.5q0 183 -59 274z" />
<glyph unicode="&#xf9;" horiz-adv-x="1226" d="M41 877v106q0 17 7 24t24 7h307q31 0 31 -31v-598q0 -62 5 -98t22 -68.5t53.5 -46.5t95.5 -14q94 0 161.5 61.5t67.5 138.5v488h-129q-31 0 -31 31v106q0 31 31 31h328q30 0 30 -31v-821h91q30 0 30 -31v-100q0 -31 -30 -31h-230q-25 0 -31 31l-18 114 q-131 -170 -344 -170q-332 0 -332 349v522h-108q-31 0 -31 31zM420.5 1491.5q4.5 7.5 26.5 7.5h147q25 0 34 -7t17 -30l89 -237q7 -22 1.5 -29.5t-28.5 -7.5h-90q-25 0 -36.5 6.5t-21.5 28.5l-133 241q-10 20 -5.5 27.5z" />
<glyph unicode="&#xfa;" horiz-adv-x="1226" d="M41 877v106q0 17 7 24t24 7h307q31 0 31 -31v-598q0 -62 5 -98t22 -68.5t53.5 -46.5t95.5 -14q94 0 161.5 61.5t67.5 138.5v488h-129q-31 0 -31 31v106q0 31 31 31h328q30 0 30 -31v-821h91q30 0 30 -31v-100q0 -31 -30 -31h-230q-25 0 -31 31l-18 114 q-131 -170 -344 -170q-332 0 -332 349v522h-108q-31 0 -31 31zM506.5 1195.5q-5.5 7.5 1.5 29.5l86 237q8 23 17 30t34 7h148q22 0 26 -7.5t-6 -27.5l-133 -241q-10 -22 -21 -28.5t-36 -6.5h-88q-23 0 -28.5 7.5z" />
<glyph unicode="&#xfb;" horiz-adv-x="1226" d="M41 877v106q0 17 7 24t24 7h307q31 0 31 -31v-598q0 -62 5 -98t22 -68.5t53.5 -46.5t95.5 -14q94 0 161.5 61.5t67.5 138.5v488h-129q-31 0 -31 31v106q0 31 31 31h328q30 0 30 -31v-821h91q30 0 30 -31v-100q0 -31 -30 -31h-230q-25 0 -31 31l-18 114 q-131 -170 -344 -170q-332 0 -332 349v522h-108q-31 0 -31 31zM307 1214l172 277q18 27 47 27h156q29 0 47 -27l172 -277q17 -26 -14 -26h-121q-32 0 -47 24l-119 174l-111 -172q-17 -26 -47 -26h-121q-31 0 -14 26z" />
<glyph unicode="&#xfc;" horiz-adv-x="1226" d="M41 877v106q0 17 7 24t24 7h307q31 0 31 -31v-598q0 -62 5 -98t22 -68.5t53.5 -46.5t95.5 -14q94 0 161.5 61.5t67.5 138.5v488h-129q-31 0 -31 31v106q0 31 31 31h328q30 0 30 -31v-821h91q30 0 30 -31v-100q0 -31 -30 -31h-230q-25 0 -31 31l-18 114 q-131 -170 -344 -170q-332 0 -332 349v522h-108q-31 0 -31 31zM252 1346q0 57 35 89.5t92 32.5q61 0 94 -31.5t33 -90.5t-36 -93t-91 -34q-58 0 -92.5 34t-34.5 93zM668 1346q0 57 35 89.5t92 32.5q61 0 94 -31.5t33 -90.5t-36 -93t-91 -34q-58 0 -92.5 34t-34.5 93z" />
<glyph unicode="&#xfd;" horiz-adv-x="1062" d="M-10.5 -431q-2.5 8 2.5 23l35 101q8 27 39 18q101 -33 161 -33q62 0 95.5 32t70.5 132l51 135l-311 869h-102q-31 0 -31 31v106q0 31 31 31h268q30 0 39 -29l240 -745l213 606h-105q-31 0 -31 31v106q0 31 31 31h299q24 0 35 -19t2 -43l-438 -1145q-17 -43 -28.5 -70 t-30.5 -62t-36.5 -56.5t-43.5 -45t-55.5 -36t-69.5 -21t-87 -8.5q-64 0 -127.5 14.5t-99.5 31.5q-14 7 -16.5 15zM512.5 1195.5q-5.5 7.5 1.5 29.5l86 237q8 23 17 30t34 7h148q22 0 26 -7.5t-6 -27.5l-133 -241q-10 -22 -21 -28.5t-36 -6.5h-88q-23 0 -28.5 7.5z" />
<glyph unicode="&#xfe;" horiz-adv-x="1196" d="M41 1391v106q0 17 7 24t24 7h309q25 0 31 -31v-633q49 75 130.5 123.5t180.5 48.5q189 0 295 -124t106 -365q0 -151 -35.5 -264t-98 -179t-141 -97.5t-171.5 -31.5q-162 0 -266 86v-368h217q30 0 30 -31v-102q0 -31 -30 -31h-555q-31 0 -31 31v100q0 31 31 31h108v1669 h-110q-31 0 -31 31zM412 231q4 -3 10.5 -9t29.5 -21t48.5 -26t64.5 -20.5t80 -9.5q118 0 183 81t65 274q0 61 -4.5 106.5t-19 93.5t-40 78.5t-70 50t-106.5 19.5q-96 0 -168.5 -60.5t-72.5 -164.5v-392z" />
<glyph unicode="&#xff;" horiz-adv-x="1062" d="M-10.5 -431q-2.5 8 2.5 23l35 101q8 27 39 18q101 -33 161 -33q62 0 95.5 32t70.5 132l51 135l-311 869h-102q-31 0 -31 31v106q0 31 31 31h268q30 0 39 -29l240 -745l213 606h-105q-31 0 -31 31v106q0 31 31 31h299q24 0 35 -19t2 -43l-438 -1145q-17 -43 -28.5 -70 t-30.5 -62t-36.5 -56.5t-43.5 -45t-55.5 -36t-69.5 -21t-87 -8.5q-64 0 -127.5 14.5t-99.5 31.5q-14 7 -16.5 15zM207 1346q0 57 35 89.5t92 32.5q61 0 94 -31.5t33 -90.5t-36 -93t-91 -34q-58 0 -92.5 34t-34.5 93zM623 1346q0 57 35 89.5t92 32.5q61 0 94 -31.5t33 -90.5 t-36 -93t-91 -34q-58 0 -92.5 34t-34.5 93z" />
<glyph unicode="&#x152;" horiz-adv-x="1998" d="M102 676q0 166 41.5 299t107 215t151.5 137t169.5 76.5t167.5 21.5q217 0 355 -112v39q0 23 8 31t31 8h745q23 0 31 -8t8 -31v-258q0 -23 -8 -31t-31 -8h-98q-23 0 -30.5 8t-6.5 31l8 133h-428v-436h305l-8 96q-1 23 6.5 31t30.5 8h98q23 0 31 -8t8 -31v-346 q0 -23 -8 -31t-31 -8h-98q-23 0 -30.5 8t-6.5 31l6 90h-303v-463h469l-8 129q-1 23 6.5 31t30.5 8h98q23 0 31 -8t8 -31v-258q0 -23 -8 -31t-31 -8h-786q-23 0 -31 8t-8 31v74q-144 -138 -398 -138q-284 0 -439 177t-155 524zM348 754q0 -61 3 -113t13 -113.5t26.5 -111 t45 -97.5t67 -80t94 -51.5t124.5 -19.5q79 0 141 26t104 72t69.5 113t39.5 144.5t12 170.5q0 120 -19.5 216t-61.5 173t-116 119.5t-175 42.5q-80 0 -143.5 -27t-104.5 -73t-68.5 -109.5t-39 -133t-11.5 -148.5z" />
<glyph unicode="&#x153;" horiz-adv-x="1699" d="M72 492q0 124 32 222t81.5 157t116 97.5t129 53t126.5 14.5q236 0 344 -153q120 153 338 153q90 0 161 -29t115 -75t72.5 -110t39.5 -128t11 -135q0 -45 -2 -70q-2 -20 -8.5 -26t-28.5 -6h-602q5 -71 19.5 -123t46 -96.5t87.5 -67.5t136 -23q111 0 232 54q28 14 41 -17 l38 -94q10 -25 -18 -41q-59 -32 -148.5 -53t-189.5 -21q-249 0 -360 162q-120 -162 -357 -162q-214 0 -333 130.5t-119 386.5zM303 537q0 -394 240 -394q123 0 179 90.5t56 272.5q0 179 -56 270.5t-183 91.5q-236 0 -236 -331zM997 608h426q4 256 -200 256q-63 0 -109 -24 t-70 -64t-34.5 -81t-12.5 -87z" />
<glyph unicode="&#x178;" horiz-adv-x="1359" d="M20 1255v105q0 31 31 31h520q31 0 31 -31v-105q0 -30 -31 -30h-145l295 -504l293 504h-137q-31 0 -31 30v105q0 31 31 31h432q30 0 30 -31v-105q0 -30 -30 -30h-109l-399 -672v-393h108q31 0 31 -31v-98q0 -31 -31 -31h-446q-31 0 -31 31v98q0 31 31 31h108v366l-413 699 h-107q-31 0 -31 30zM373 1638q0 57 35 90t92 33q60 0 93.5 -31.5t33.5 -91.5q0 -59 -36 -93t-91 -34q-58 0 -92.5 34t-34.5 93zM788 1638q0 57 35 90t92 33q60 0 93.5 -31.5t33.5 -91.5q0 -59 -36 -93t-91 -34q-58 0 -92.5 34t-34.5 93z" />
<glyph unicode="&#x2c6;" horiz-adv-x="1024" d="M219 1214l172 277q18 27 47 27h156q29 0 47 -27l172 -277q17 -26 -14 -26h-121q-32 0 -47 24l-119 174l-111 -172q-17 -26 -47 -26h-121q-31 0 -14 26z" />
<glyph unicode="&#x2dc;" horiz-adv-x="1024" d="M164 1266q0 57 14.5 97.5t38.5 59.5t47 27t49 8q54 0 190 -42t183 -42q34 0 52 11t18 45q0 16 7 21t23 5h50q24 0 24 -29q0 -102 -44 -152t-111 -50t-202 39t-165 39q-62 0 -62 -46q0 -13 -4.5 -16.5t-19.5 -3.5h-64q-24 0 -24 29z" />
<glyph unicode="&#x2000;" horiz-adv-x="927" />
<glyph unicode="&#x2001;" horiz-adv-x="1855" />
<glyph unicode="&#x2002;" horiz-adv-x="927" />
<glyph unicode="&#x2003;" horiz-adv-x="1855" />
<glyph unicode="&#x2004;" horiz-adv-x="618" />
<glyph unicode="&#x2005;" horiz-adv-x="463" />
<glyph unicode="&#x2006;" horiz-adv-x="309" />
<glyph unicode="&#x2007;" horiz-adv-x="309" />
<glyph unicode="&#x2008;" horiz-adv-x="231" />
<glyph unicode="&#x2009;" horiz-adv-x="371" />
<glyph unicode="&#x200a;" horiz-adv-x="103" />
<glyph unicode="&#x2010;" horiz-adv-x="577" d="M61 485v121q0 23 8 31t31 8h377q23 0 31 -8t8 -31v-121q0 -23 -8 -31t-31 -8h-377q-23 0 -31 8t-8 31z" />
<glyph unicode="&#x2011;" horiz-adv-x="577" d="M61 485v121q0 23 8 31t31 8h377q23 0 31 -8t8 -31v-121q0 -23 -8 -31t-31 -8h-377q-23 0 -31 8t-8 31z" />
<glyph unicode="&#x2012;" horiz-adv-x="577" d="M61 485v121q0 23 8 31t31 8h377q23 0 31 -8t8 -31v-121q0 -23 -8 -31t-31 -8h-377q-23 0 -31 8t-8 31z" />
<glyph unicode="&#x2013;" horiz-adv-x="1024" d="M0 547v80q0 23 8 31t31 8h946q23 0 31 -8t8 -31v-80q0 -23 -8 -31t-31 -8h-946q-23 0 -31 8t-8 31z" />
<glyph unicode="&#x2014;" horiz-adv-x="2045" d="M0 547v80q0 23 8 31t31 8h1968q23 0 31 -8t8 -31v-80q0 -23 -8 -31t-31 -8h-1968q-23 0 -31 8t-8 31z" />
<glyph unicode="&#x2018;" horiz-adv-x="520" d="M135 1155q0 36 12.5 73.5t25 59.5t42.5 72l90 151q11 19 21 22.5t32 -5.5h2q22 -9 26 -18t-3 -31l-59 -185q63 -83 63 -143q0 -49 -33.5 -82t-89.5 -33t-92.5 33t-36.5 86z" />
<glyph unicode="&#x2019;" horiz-adv-x="520" d="M150 1069q-4 9 4 31l59 184q-63 83 -63 143q0 49 33.5 82t88.5 33q56 0 92.5 -33t36.5 -86q0 -36 -12 -73t-24.5 -59.5t-42.5 -71.5l-91 -152q-10 -19 -20.5 -22t-32.5 6h-2q-22 9 -26 18z" />
<glyph unicode="&#x201a;" horiz-adv-x="520" d="M150 74q0 49 33 81.5t89 32.5t92.5 -32.5t36.5 -85.5q0 -36 -12 -73t-25 -60.5t-42 -71.5l-91 -152q-10 -19 -20.5 -22t-32.5 6h-2q-22 9 -26 18t4 31l59 184q-63 83 -63 144z" />
<glyph unicode="&#x201c;" horiz-adv-x="827" d="M135 1155q0 36 12.5 73.5t25 59.5t42.5 72l90 151q11 19 21 22.5t32 -5.5h2q22 -9 26 -18t-3 -31l-59 -185q63 -83 63 -143q0 -49 -33.5 -82t-89.5 -33t-92.5 33t-36.5 86zM442 1155q0 36 12.5 73.5t25 59.5t42.5 72l90 151q11 19 21.5 22.5t32.5 -5.5h2q22 -9 26 -18 t-4 -31l-59 -185q63 -83 63 -143q0 -49 -33.5 -82t-89.5 -33t-92.5 33t-36.5 86z" />
<glyph unicode="&#x201d;" horiz-adv-x="827" d="M150 1069q-4 9 4 31l59 184q-63 83 -63 143q0 49 33.5 82t88.5 33q56 0 92.5 -33t36.5 -86q0 -36 -12 -73t-24.5 -59.5t-42.5 -71.5l-91 -152q-10 -19 -20.5 -22t-32.5 6h-2q-22 9 -26 18zM457 1069q-4 9 4 31l59 184q-63 83 -63 143q0 49 33.5 82t89.5 33t92.5 -33 t36.5 -86q0 -36 -12.5 -73.5t-24.5 -58.5t-43 -72l-90 -152q-10 -19 -21 -22t-33 6h-2q-22 9 -26 18z" />
<glyph unicode="&#x201e;" horiz-adv-x="806" d="M150 74q0 49 33 81.5t89 32.5t92.5 -32.5t36.5 -85.5q0 -36 -12 -73t-25 -60.5t-42 -71.5l-91 -152q-10 -19 -20.5 -22t-32.5 6h-2q-22 9 -26 18t4 31l59 184q-63 83 -63 144zM457 74q0 49 33.5 81.5t89.5 32.5t92.5 -32.5t36.5 -85.5q0 -36 -12.5 -73.5t-25 -59.5 t-42.5 -72l-90 -152q-10 -19 -21 -22t-33 6h-2q-22 9 -26 18t4 31l59 184q-63 83 -63 144z" />
<glyph unicode="&#x2022;" horiz-adv-x="739" d="M164 698q0 80 56 136.5t145 56.5q97 0 153.5 -53t56.5 -138q0 -82 -54.5 -137t-151.5 -55q-95 0 -150 54t-55 136z" />
<glyph unicode="&#x2026;" horiz-adv-x="1583" d="M104 102q0 60 43 101t109 41q70 0 113 -39t43 -101q0 -61 -41 -102t-113 -41t-113 39.5t-41 101.5zM610 102q0 60 43 101t109 41q70 0 113 -39t43 -101q0 -61 -41 -102t-113 -41t-113 39.5t-41 101.5zM1133 102q0 60 42.5 101t108.5 41q70 0 113 -39t43 -101 q0 -61 -41 -102t-113 -41t-112.5 39.5t-40.5 101.5z" />
<glyph unicode="&#x202f;" horiz-adv-x="371" />
<glyph unicode="&#x2039;" horiz-adv-x="669" d="M141.5 588q0.5 13 10.5 35l180 350q10 22 21 28.5t36 6.5h119q22 0 26.5 -7.5t-4.5 -27.5l-194 -383l188 -383q9 -20 4.5 -27.5t-26.5 -7.5h-123q-25 0 -35.5 6.5t-19.5 28.5l-174 346q-9 22 -8.5 35z" />
<glyph unicode="&#x203a;" horiz-adv-x="669" d="M135.5 179.5q-4.5 7.5 5.5 27.5l195 385l-191 381q-9 20 -4 27.5t27 7.5h123q25 0 35.5 -6.5t19.5 -28.5l174 -346q9 -22 8.5 -35t-10.5 -35l-180 -350q-10 -22 -21 -28.5t-36 -6.5h-119q-22 0 -26.5 7.5z" />
<glyph unicode="&#x205f;" horiz-adv-x="463" />
<glyph unicode="&#x20ac;" horiz-adv-x="1079" d="M45 412l4 30q3 23 11.5 31t31.5 8h86q-3 39 0 80h-82q-23 0 -29.5 8t-3.5 31l5 31q3 24 12 31.5t33 7.5h75q19 112 69 196t119 130.5t143 68.5t153 22q190 0 317 -75q20 -10 26.5 -21.5t6.5 -34.5v-180q0 -23 -8 -31t-31 -8h-88q-23 0 -30.5 8t-6.5 31l8 103 q-30 27 -83.5 46t-112.5 19q-130 0 -200 -75.5t-81 -198.5h393q23 0 29.5 -7.5t3.5 -29.5l-6 -35q-3 -23 -11.5 -30t-33.5 -7h-379q-3 -42 2 -80h367q23 0 29 -7.5t3 -31.5l-4 -30q-3 -24 -12 -31.5t-33 -7.5h-338q26 -122 97.5 -185t201.5 -63q105 0 168 39l-8 108 q-3 23 4.5 31t30.5 8h92q23 0 31 -8t8 -31v-176q0 -23 -6.5 -34t-28.5 -21q-141 -66 -299 -66q-436 0 -502 398h-108q-23 0 -30.5 8t-4.5 31z" />
<glyph unicode="&#x2122;" horiz-adv-x="1728" d="M143 1247v113q0 31 31 31h498q30 0 30 -31v-113q0 -30 -30 -30h-29q-32 0 -29 30l4 70h-131v-524h66q31 0 31 -31v-27q0 -30 -31 -30h-256q-31 0 -31 30v27q0 31 31 31h63v524h-129l5 -70q3 -30 -29 -30h-33q-31 0 -31 30zM752 735v25q0 31 30 31h37v514h-37 q-30 0 -30 30v25q0 31 30 31h154q32 0 41 -29l197 -520l202 520q9 29 41 29h137q31 0 31 -31v-25q0 -30 -31 -30h-34v-514h34q31 0 31 -31v-25q0 -30 -31 -30h-196q-31 0 -31 30v27q0 31 31 31h41v409l-180 -469q-8 -28 -41 -28h-41q-33 0 -41 28l-189 488v-428h58 q30 0 30 -31v-27q0 -30 -30 -30h-183q-30 0 -30 30z" />
<glyph unicode="&#x25fc;" horiz-adv-x="1013" d="M0 0v1014h1014v-1014h-1014z" />
<glyph unicode="&#xfb01;" horiz-adv-x="1253" d="M41 31v100q0 31 31 31h127v686h-127q-31 0 -31 31v104q0 31 31 31h127v198q0 53 11 100.5t38.5 92.5t68.5 77.5t105 52t145 19.5q92 0 182 -22t146 -49q24 -11 16 -39l-34 -103q-9 -25 -35 -14q-131 57 -238 57q-97 0 -136.5 -51.5t-39.5 -169.5v-149h614q31 0 31 -31 v-821h129q31 0 31 -31v-100q0 -31 -31 -31h-467q-30 0 -30 31v100q0 31 30 31h109v686h-416v-686h156q30 0 30 -31v-100q0 -31 -30 -31h-512q-31 0 -31 31z" />
<glyph unicode="&#xfb02;" horiz-adv-x="1273" d="M41 31v100q0 31 31 31h127v686h-127q-31 0 -31 31v104q0 31 31 31h127v198q0 53 11 100.5t38.5 92.5t68.5 77.5t105 52t145 19.5q89 0 176 -20t144 -47l164 35q20 4 31.5 -4t11.5 -25v-1331h129q30 0 30 -31v-100q0 -31 -30 -31h-488q-30 0 -30 31v100q0 31 30 31h129 v1155q-138 67 -250 67q-104 0 -145 -51.5t-41 -169.5v-149h248q31 0 31 -31v-104q0 -31 -31 -31h-248v-686h156q30 0 30 -31v-100q0 -31 -30 -31h-512q-31 0 -31 31z" />
<glyph unicode="&#xfb03;" horiz-adv-x="1921" d="M41 31v100q0 31 31 31h127v686h-127q-31 0 -31 31v104q0 31 31 31h127v178q0 55 6.5 100.5t27 92t54 78t91 51.5t134.5 20q122 0 240 -51q24 -11 16 -39l-31 -103q-9 -25 -35 -14q-83 37 -145 37q-36 0 -60 -9.5t-37.5 -25t-20.5 -46t-9 -60t-2 -80.5v-129h438v198 q0 53 11.5 100.5t38.5 92.5t68 77.5t105.5 52t145.5 19.5q92 0 182 -22t146 -49q24 -11 16 -39l-35 -103q-9 -25 -35 -14q-131 57 -237 57q-97 0 -136.5 -51.5t-39.5 -169.5v-149h614q31 0 31 -31v-821h129q31 0 31 -31v-100q0 -31 -31 -31h-467q-31 0 -31 31v100 q0 31 31 31h108v686h-415v-686h155q31 0 31 -31v-100q0 -31 -31 -31h-512q-30 0 -30 31v100q0 31 30 31h127v686h-438v-686h170q31 0 31 -31v-100q0 -31 -31 -31h-526q-31 0 -31 31z" />
<glyph unicode="&#xfb04;" horiz-adv-x="1945" d="M41 31v100q0 31 31 31h127v686h-127q-31 0 -31 31v104q0 31 31 31h127v178q0 55 6.5 100.5t27 92t54 78t91 51.5t134.5 20q122 0 240 -51q24 -11 16 -39l-31 -103q-9 -25 -35 -14q-83 37 -145 37q-36 0 -60 -9.5t-37.5 -25t-20.5 -46t-9 -60t-2 -80.5v-129h442v198 q0 53 11.5 100.5t38.5 92.5t68 77.5t105.5 52t145.5 19.5q89 0 176 -20t144 -47l163 35q20 4 31.5 -4t11.5 -25v-1331h129q31 0 31 -31v-100q0 -31 -31 -31h-487q-31 0 -31 31v100q0 31 31 31h129v1155q-138 67 -250 67q-104 0 -145 -51.5t-41 -169.5v-149h248q30 0 30 -31 v-104q0 -31 -30 -31h-248v-686h155q31 0 31 -31v-100q0 -31 -31 -31h-512q-30 0 -30 31v100q0 31 30 31h127v686h-442v-686h170q31 0 31 -31v-100q0 -31 -31 -31h-526q-31 0 -31 31z" />
</font>
</defs>
</svg>
